<?xml version="1.0" encoding="utf-8"?>
<!-- Generator: Adobe Illustrator 25.4.1, SVG Export Plug-In . SVG Version: 6.00 Build 0)  -->
<svg version="1.1"
	 id="svg2" xmlns:cc="http://creativecommons.org/ns#" xmlns:dc="http://purl.org/dc/elements/1.1/" xmlns:rdf="http://www.w3.org/1999/02/22-rdf-syntax-ns#" xmlns:svg="http://www.w3.org/2000/svg"
	 xmlns="http://www.w3.org/2000/svg" xmlns:xlink="http://www.w3.org/1999/xlink" x="0px" y="0px" viewBox="0 0 793.7 1122.5"
	 style="enable-background:new 0 0 793.7 1122.5;" xml:space="preserve">
<style type="text/css">
	.st0{fill-rule:evenodd;clip-rule:evenodd;fill:#003399;}
	.st1{clip-path:url(#SVGID_00000069365969918579033770000006139351651258039740_);}
	.st2{fill-rule:evenodd;clip-rule:evenodd;fill:#FFFFFF;}
	.st3{fill:#FFFFFF;}
	.st4{clip-path:url(#SVGID_00000109012367240924860950000005669198417745243061_);}
	.st5{fill:#C5D4F0;}
	.st6{filter:url(#Adobe_OpacityMaskFilter);}
	
		.st7{clip-path:url(#SVGID_00000137837636533282441930000002038408000604705461_);fill-rule:evenodd;clip-rule:evenodd;fill:url(#path72_00000093860660383691514600000006974716533775955328_);}
	.st8{mask:url(#mask70_00000160185214303849643430000011405392507461442730_);}
	.st9{filter:url(#Adobe_OpacityMaskFilter_00000106130408916669012600000004009694748498675898_);}
	
		.st10{clip-path:url(#SVGID_00000170999223385563807730000015944063259327068843_);fill-rule:evenodd;clip-rule:evenodd;fill:url(#path112_00000148622109814857050240000005435148205250339457_);}
	.st11{mask:url(#mask110_00000165217680213929138340000017414629642443729801_);}
	.st12{filter:url(#Adobe_OpacityMaskFilter_00000151506737498200080290000001959014746349567915_);}
	
		.st13{clip-path:url(#SVGID_00000092431612305621587510000002389436366696925361_);fill-rule:evenodd;clip-rule:evenodd;fill:url(#path154_00000117658134368589774870000015499743830532270767_);}
	.st14{mask:url(#mask152_00000010310608880902199080000002588842071886424711_);}
	.st15{filter:url(#Adobe_OpacityMaskFilter_00000085955418207138953210000017956127645429790084_);}
	
		.st16{clip-path:url(#SVGID_00000041981673111362496700000016461210178865615754_);fill-rule:evenodd;clip-rule:evenodd;fill:url(#path194_00000180324720101590238140000008789576530797695113_);}
	.st17{mask:url(#mask192_00000124849125179478776430000016962561962220105901_);}
	.st18{clip-path:url(#SVGID_00000044887117056502527480000003329381751402971803_);}
	.st19{filter:url(#Adobe_OpacityMaskFilter_00000127733010882696370070000011690517082680025508_);}
	
		.st20{clip-path:url(#SVGID_00000035527311325535954580000014437423214634583465_);fill-rule:evenodd;clip-rule:evenodd;fill:url(#path258_00000039842863511368658560000000711465822920730531_);}
	.st21{mask:url(#mask256_00000133496997983148353130000006036895606086694555_);}
	.st22{filter:url(#Adobe_OpacityMaskFilter_00000155830270574125034460000002864723861866893959_);}
	
		.st23{clip-path:url(#SVGID_00000094615851666202819680000000515650718107455916_);fill-rule:evenodd;clip-rule:evenodd;fill:url(#path298_00000145768221284573602990000004632159447486474887_);}
	.st24{mask:url(#mask296_00000088821526917318179580000002934213725734963378_);}
	.st25{filter:url(#Adobe_OpacityMaskFilter_00000167361678616684927050000018376182125082306733_);}
	
		.st26{clip-path:url(#SVGID_00000000191876612063945390000001218423711133178548_);fill-rule:evenodd;clip-rule:evenodd;fill:url(#path340_00000052819883156716628970000016063604444421638060_);}
	.st27{mask:url(#mask338_00000107560747891877258990000013912864009465855391_);}
	.st28{filter:url(#Adobe_OpacityMaskFilter_00000070095838277112635290000003591250939166145185_);}
	
		.st29{clip-path:url(#SVGID_00000151534367538908538710000012915797868701045385_);fill-rule:evenodd;clip-rule:evenodd;fill:url(#path380_00000103984712120989915400000010884463805544757142_);}
	.st30{mask:url(#mask378_00000170962678874505866600000012568408791842236043_);}
	.st31{fill:#003399;}
	.st32{clip-path:url(#SVGID_00000078016316031373782700000000611004671703812493_);}
	.st33{filter:url(#Adobe_OpacityMaskFilter_00000102523162559123116840000008787051029763431048_);}
	
		.st34{clip-path:url(#SVGID_00000016777053025903224280000015203740975483998094_);fill-rule:evenodd;clip-rule:evenodd;fill:url(#path434_00000151526017146310719860000013938266436364251571_);}
	.st35{mask:url(#mask432_00000121980053824484980100000006397732556452267433_);}
	.st36{fill-rule:evenodd;clip-rule:evenodd;fill:#008DDE;}
	.st37{filter:url(#Adobe_OpacityMaskFilter_00000134236217558071781400000015869113442491305345_);}
	
		.st38{clip-path:url(#SVGID_00000027586440322947900960000010117010227809627533_);fill-rule:evenodd;clip-rule:evenodd;fill:url(#path470_00000041286625072232183810000016455008213804414875_);}
	.st39{mask:url(#mask468_00000004510244761541060170000003164149390432349623_);}
	.st40{filter:url(#Adobe_OpacityMaskFilter_00000078031201900766336490000003753657775228923820_);}
	
		.st41{clip-path:url(#SVGID_00000178178223540739816490000002832459210589821104_);fill-rule:evenodd;clip-rule:evenodd;fill:url(#path508_00000135658402824248489900000011338402546757576633_);}
	.st42{mask:url(#mask506_00000086662846737597899290000004930024778626854062_);}
	.st43{filter:url(#Adobe_OpacityMaskFilter_00000063596254802041236360000013210639793674896819_);}
	
		.st44{clip-path:url(#SVGID_00000040576347228480951090000000995204591217527961_);fill-rule:evenodd;clip-rule:evenodd;fill:url(#path544_00000118385068326989552390000010712952743408381369_);}
	.st45{mask:url(#mask542_00000017506483663768329080000000414822841840446602_);}
	.st46{fill:#00CCFF;}
	.st47{fill:#FFD900;}
	.st48{fill:#E7E8E9;}
	.st49{fill:#CCCCCC;}
	.st50{fill:#002E8A;}
	.st51{fill:#AAACAE;}
	.st52{fill:#008DDE;}
</style>
<g id="g10" transform="matrix(1.3333333,0,0,-1.3333333,0,1122.5197)">
	<path id="path12" class="st0" d="M5.9,259.3v471.2c0,12.9,4.9,24.2,14.4,33c17.6,16.3,39.9,29.2,61.6,39
		c66.1,29.8,143.7,39.5,215.7,39.5c72,0,149.6-9.7,215.7-39.5c21.8-9.8,44.1-22.7,61.6-39c9.5-8.8,14.4-20,14.4-33V259.3
		c0-13.5-5.3-25.1-15.5-33.9L327.1,11.1c-17-14.8-41.9-14.8-59,0L21.3,225.4C11.2,234.2,5.9,245.9,5.9,259.3"/>
	<g id="g14">
		<g>
			<defs>
				<path id="SVGID_1_" d="M5.9,259.3v471.2c0,12.9,4.9,24.2,14.4,33c17.6,16.3,39.9,29.2,61.6,39c66.1,29.8,143.7,39.5,215.7,39.5
					c72,0,149.6-9.7,215.7-39.5c21.8-9.8,44.1-22.7,61.6-39c9.5-8.8,14.4-20,14.4-33V259.3c0-13.5-5.3-25.1-15.5-33.9L327.1,11.1
					c-17-14.8-41.9-14.8-59,0L21.3,225.4C11.2,234.2,5.9,245.9,5.9,259.3"/>
			</defs>
			<clipPath id="SVGID_00000103240488672482929890000013974593682178333864_">
				<use xlink:href="#SVGID_1_"  style="overflow:visible;"/>
			</clipPath>
			<g id="g16" style="clip-path:url(#SVGID_00000103240488672482929890000013974593682178333864_);">
				<g id="g22">
					<path id="path24" class="st2" d="M44.7,259.3v471.2c0,1.8,0.7,3.3,2,4.5c14.3,13.3,33.6,24.1,51.2,32.1
						c60.8,27.4,133.7,36.1,199.8,36.1c66,0,138.9-8.7,199.8-36.1c17.6-8,36.9-18.8,51.2-32.1c1.3-1.2,2-2.7,2-4.5V259.3
						c0-1.8-0.7-3.4-2.1-4.6L301.6,40.4c-2.3-2-5.7-2-8,0L46.8,254.7C45.4,255.9,44.7,257.5,44.7,259.3"/>
					<path id="path26" class="st3" d="M50.8,259.3v471.2c6.7,6.2,22.2,18.7,49.6,31c35.4,15.9,98.1,34.9,197.2,35.6
						c99.1-0.7,161.9-19.6,197.2-35.6c27.4-12.3,42.8-24.8,49.6-31V259.3L297.6,45L50.8,259.3z"/>
					<g id="g28">
						<g>
							<defs>
								<path id="SVGID_00000098930827686039471410000001597117273364779957_" d="M50.8,259.3v471.2c6.7,6.2,22.2,18.7,49.6,31
									c35.4,15.9,98.1,34.9,197.2,35.6c99.1-0.7,161.9-19.6,197.2-35.6c27.4-12.3,42.8-24.8,49.6-31V259.3L297.6,45L50.8,259.3z"
									/>
							</defs>
							<clipPath id="SVGID_00000115495695263977258620000004315956888803626885_">
								<use xlink:href="#SVGID_00000098930827686039471410000001597117273364779957_"  style="overflow:visible;"/>
							</clipPath>
							<g id="g30" style="clip-path:url(#SVGID_00000115495695263977258620000004315956888803626885_);">
								<g id="g36">
									<g id="g38">
										<path id="path40" class="st5" d="M414.7,1091.7c41.9-3.5,78.7-9,110.9-15.6V-56l-110.9-96.3V1091.7z"/>
										<path id="path42" class="st5" d="M242.2,1094.5c20.7,1,42.3,1.5,65,1.5c15.8,0,31.1-0.3,45.9-0.8V-205.8l-55.4-48.1
											l-55.4,48.1L242.2,1094.5z"/>
										<path id="path44" class="st5" d="M69.7,1072.7c32.3,7.1,69.1,13.2,110.9,17.3V-152.3L69.7-56V1072.7z"/>
									</g>
									<g id="g46">
										<g id="g48">
											<g id="g50">
												<g id="g52">
												</g>
												<defs>
													<filter id="Adobe_OpacityMaskFilter" filterUnits="userSpaceOnUse" x="13.1" y="-641.8" width="569" height="569">
														<feColorMatrix  type="matrix" values="1 0 0 0 0  0 1 0 0 0  0 0 1 0 0  0 0 0 1 0"/>
													</filter>
												</defs>
												
													<mask maskUnits="userSpaceOnUse" x="13.1" y="-641.8" width="569" height="569" id="mask70_00000160185214303849643430000011405392507461442730_">
													<g id="g84_00000008852038182814483930000005610958731670321537_" class="st6">
														<g>
															<defs>
																
																	<rect id="SVGID_00000150078937110243738080000011983256374533207709_" x="-193.4" y="476.8" width="569" height="569"/>
															</defs>
															<clipPath id="SVGID_00000011022018369372668050000013393198629737294519_">
																<use xlink:href="#SVGID_00000150078937110243738080000011983256374533207709_"  style="overflow:visible;"/>
															</clipPath>
															<g id="g82_00000004523854930051557780000010884543594723038131_">
																<g id="g80_00000182489489491118809520000010384866823170141596_" transform="translate(195.0279,295.5796)">
																	<g id="g78_00000044172940639121190860000009889622599741080758_">
																		<g id="g76_00000129206222631279252630000012269499537838356381_">
																			<g id="g74_00000150812011774606076850000009730240504642532513_">
																				
																					<radialGradient id="path72_00000010296671906459929150000017031333608856921235_" cx="-408.3789" cy="-164.1517" r="1.3891" gradientTransform="matrix(204.8148 0 0 -204.8152 83538.0625 -33155.0781)" gradientUnits="userSpaceOnUse">
																					<stop  offset="0" style="stop-color:#FFFFFF"/>
																					<stop  offset="0.4853" style="stop-color:#FFFFFF"/>
																					<stop  offset="1" style="stop-color:#FFFFFF;stop-opacity:0"/>
																				</radialGradient>
																				
																					<path id="path72_00000127748369896323147000000015954860456099841938_" style="clip-path:url(#SVGID_00000011022018369372668050000013393198629737294519_);fill-rule:evenodd;clip-rule:evenodd;fill:url(#path72_00000010296671906459929150000017031333608856921235_);" d="
																					M-317.4,679.1h426.8V252.3h-426.8V679.1z"/>
																			</g>
																		</g>
																	</g>
																</g>
															</g>
														</g>
													</g>
												</mask>
												<g id="g86" class="st8">
													<path id="path88" class="st2" d="M297.6,641.8c157.1,0,284.5-127.4,284.5-284.5c0-157.1-127.4-284.5-284.5-284.5
														S13.1,200.2,13.1,357.3C13.1,514.4,140.5,641.8,297.6,641.8"/>
												</g>
											</g>
											<g id="g90">
												<g id="g92">
												</g>
												<defs>
													
														<filter id="Adobe_OpacityMaskFilter_00000046314457486677676590000010361344570289003454_" filterUnits="userSpaceOnUse" x="13.1" y="-641.8" width="569" height="569">
														<feColorMatrix  type="matrix" values="1 0 0 0 0  0 1 0 0 0  0 0 1 0 0  0 0 0 1 0"/>
													</filter>
												</defs>
												
													<mask maskUnits="userSpaceOnUse" x="13.1" y="-641.8" width="569" height="569" id="mask110_00000165217680213929138340000017414629642443729801_">
													
														<g id="g124_00000030476677788268137580000000945236303836809404_" style="filter:url(#Adobe_OpacityMaskFilter_00000046314457486677676590000010361344570289003454_);">
														<g>
															<defs>
																
																	<rect id="SVGID_00000138554353362711002100000017293969242848115617_" x="-193.4" y="476.8" width="569" height="569"/>
															</defs>
															<clipPath id="SVGID_00000067198620256932792120000011459225077502865560_">
																<use xlink:href="#SVGID_00000138554353362711002100000017293969242848115617_"  style="overflow:visible;"/>
															</clipPath>
															<g id="g122_00000036957855827766401920000018083458109024202881_">
																<g id="g120_00000154406141785173685890000000307759306569343133_" transform="translate(195.0279,295.5796)">
																	<g id="g118_00000014609368483225845260000014740366808831761586_">
																		<g id="g116_00000163038384925033919460000014925838735240744880_">
																			<g id="g114_00000161601390607651492930000008443572793399532161_">
																				
																					<radialGradient id="path112_00000003079413822003261110000011142077364315239350_" cx="-408.3789" cy="-164.1517" r="1.3891" gradientTransform="matrix(204.8148 0 0 -204.8152 83538.0625 -33155.0781)" gradientUnits="userSpaceOnUse">
																					<stop  offset="0" style="stop-color:#FFFFFF"/>
																					<stop  offset="0.4853" style="stop-color:#FFFFFF"/>
																					<stop  offset="1" style="stop-color:#FFFFFF;stop-opacity:0"/>
																				</radialGradient>
																				
																					<path id="path112_00000057862649025622383710000009828540138772373663_" style="clip-path:url(#SVGID_00000067198620256932792120000011459225077502865560_);fill-rule:evenodd;clip-rule:evenodd;fill:url(#path112_00000003079413822003261110000011142077364315239350_);" d="
																					M-317.4,679.1h426.8V252.3h-426.8V679.1z"/>
																			</g>
																		</g>
																	</g>
																</g>
															</g>
														</g>
													</g>
												</mask>
												<g id="g126" class="st11">
													<path id="path128" class="st2" d="M297.6,641.8c157.1,0,284.5-127.4,284.5-284.5c0-157.1-127.4-284.5-284.5-284.5
														S13.1,200.2,13.1,357.3C13.1,514.4,140.5,641.8,297.6,641.8"/>
												</g>
											</g>
										</g>
										<g id="g130">
											<g id="g132">
												<g id="g134">
												</g>
												<defs>
													
														<filter id="Adobe_OpacityMaskFilter_00000133519093677872989880000000932253117360789946_" filterUnits="userSpaceOnUse" x="13.1" y="-641.8" width="569" height="569">
														<feColorMatrix  type="matrix" values="1 0 0 0 0  0 1 0 0 0  0 0 1 0 0  0 0 0 1 0"/>
													</filter>
												</defs>
												
													<mask maskUnits="userSpaceOnUse" x="13.1" y="-641.8" width="569" height="569" id="mask152_00000010310608880902199080000002588842071886424711_">
													
														<g id="g166_00000180362226317387688120000012068480130174422405_" style="filter:url(#Adobe_OpacityMaskFilter_00000133519093677872989880000000932253117360789946_);">
														<g>
															<defs>
																
																	<rect id="SVGID_00000181048957285002912340000007973255102265562290_" x="-193.4" y="476.8" width="569" height="569"/>
															</defs>
															<clipPath id="SVGID_00000072987070990518362810000008075268092286465923_">
																<use xlink:href="#SVGID_00000181048957285002912340000007973255102265562290_"  style="overflow:visible;"/>
															</clipPath>
															<g id="g164_00000057850081891058304850000006317386286388387240_">
																<g id="g162_00000011014238869861884420000007036652650994771880_" transform="translate(195.0279,295.5796)">
																	<g id="g160_00000075880663884642055490000002061177701110869400_">
																		<g id="g158_00000162316017105947503800000002735152283038344320_">
																			<g id="g156_00000176736469889719215540000001645198000674279839_">
																				
																					<radialGradient id="path154_00000059293875066357986590000013222013161965722809_" cx="-408.3789" cy="-164.1517" r="1.3891" gradientTransform="matrix(204.8148 0 0 -204.8152 83538.0625 -33155.0781)" gradientUnits="userSpaceOnUse">
																					<stop  offset="0" style="stop-color:#FFFFFF"/>
																					<stop  offset="0.4853" style="stop-color:#FFFFFF"/>
																					<stop  offset="1" style="stop-color:#FFFFFF;stop-opacity:0"/>
																				</radialGradient>
																				
																					<path id="path154_00000128460622244266879810000015090814973543779495_" style="clip-path:url(#SVGID_00000072987070990518362810000008075268092286465923_);fill-rule:evenodd;clip-rule:evenodd;fill:url(#path154_00000059293875066357986590000013222013161965722809_);" d="
																					M-317.4,679.1h426.8V252.3h-426.8V679.1z"/>
																			</g>
																		</g>
																	</g>
																</g>
															</g>
														</g>
													</g>
												</mask>
												<g id="g168" class="st14">
													<path id="path170" class="st2" d="M297.6,641.8c157.1,0,284.5-127.4,284.5-284.5c0-157.1-127.4-284.5-284.5-284.5
														S13.1,200.2,13.1,357.3C13.1,514.4,140.5,641.8,297.6,641.8"/>
												</g>
											</g>
											<g id="g172">
												<g id="g174">
												</g>
												<defs>
													
														<filter id="Adobe_OpacityMaskFilter_00000114772194043057150380000012860580710468605575_" filterUnits="userSpaceOnUse" x="13.1" y="-641.8" width="569" height="569">
														<feColorMatrix  type="matrix" values="1 0 0 0 0  0 1 0 0 0  0 0 1 0 0  0 0 0 1 0"/>
													</filter>
												</defs>
												
													<mask maskUnits="userSpaceOnUse" x="13.1" y="-641.8" width="569" height="569" id="mask192_00000124849125179478776430000016962561962220105901_">
													
														<g id="g206_00000083085887775996237250000012591590001933326481_" style="filter:url(#Adobe_OpacityMaskFilter_00000114772194043057150380000012860580710468605575_);">
														<g>
															<defs>
																
																	<rect id="SVGID_00000155107623390176723940000016047761230377868706_" x="-193.4" y="476.8" width="569" height="569"/>
															</defs>
															<clipPath id="SVGID_00000036940168381904499930000016401699554116652188_">
																<use xlink:href="#SVGID_00000155107623390176723940000016047761230377868706_"  style="overflow:visible;"/>
															</clipPath>
															<g id="g204_00000025422387220026421940000014005956654721340068_">
																<g id="g202_00000042719706899915674500000015054821007825962139_" transform="translate(195.0279,295.5796)">
																	<g id="g200_00000146488613868733935390000001730850870674365875_">
																		<g id="g198_00000128481009420758088090000016277762546329228437_">
																			<g id="g196_00000139262164382905377630000004399854452903954621_">
																				
																					<radialGradient id="path194_00000165946905328705411530000016497366904831205560_" cx="-408.3789" cy="-164.1517" r="1.3891" gradientTransform="matrix(204.8148 0 0 -204.8152 83538.0625 -33155.0781)" gradientUnits="userSpaceOnUse">
																					<stop  offset="0" style="stop-color:#FFFFFF"/>
																					<stop  offset="0.4853" style="stop-color:#FFFFFF"/>
																					<stop  offset="1" style="stop-color:#FFFFFF;stop-opacity:0"/>
																				</radialGradient>
																				
																					<path id="path194_00000057866516896770960620000005328947373447987867_" style="clip-path:url(#SVGID_00000036940168381904499930000016401699554116652188_);fill-rule:evenodd;clip-rule:evenodd;fill:url(#path194_00000165946905328705411530000016497366904831205560_);" d="
																					M-317.4,679.1h426.8V252.3h-426.8V679.1z"/>
																			</g>
																		</g>
																	</g>
																</g>
															</g>
														</g>
													</g>
												</mask>
												<g id="g208" class="st17">
													<path id="path210" class="st2" d="M297.6,641.8c157.1,0,284.5-127.4,284.5-284.5c0-157.1-127.4-284.5-284.5-284.5
														S13.1,200.2,13.1,357.3C13.1,514.4,140.5,641.8,297.6,641.8"/>
												</g>
											</g>
										</g>
									</g>
								</g>
							</g>
						</g>
					</g>
					<path id="path212" class="st3" d="M50.8,598.9v131.6c6.7,6.2,22.2,18.7,49.6,31c35.4,15.9,98.1,34.9,197.2,35.6
						c99.1-0.7,161.9-19.6,197.2-35.6c27.4-12.3,42.8-24.8,49.6-31V598.9H50.8z"/>
					<g id="g214">
						<g>
							<defs>
								<path id="SVGID_00000170250549847110600420000002750718601788486021_" d="M50.8,598.9v131.6c6.7,6.2,22.2,18.7,49.6,31
									c35.4,15.9,98.1,34.9,197.2,35.6c99.1-0.7,161.9-19.6,197.2-35.6c27.4-12.3,42.8-24.8,49.6-31V598.9H50.8z"/>
							</defs>
							<clipPath id="SVGID_00000016797713142300977220000011177954616677073580_">
								<use xlink:href="#SVGID_00000170250549847110600420000002750718601788486021_"  style="overflow:visible;"/>
							</clipPath>
							<g id="g216" style="clip-path:url(#SVGID_00000016797713142300977220000011177954616677073580_);">
								<g id="g222">
									<g id="g224">
										<path id="path226" class="st5" d="M414.7,1091.7c41.9-3.5,78.7-9,110.9-15.6V-56l-110.9-96.3V1091.7z"/>
										<path id="path228" class="st5" d="M242.2,1094.5c20.7,1,42.3,1.5,65,1.5c15.8,0,31.1-0.3,45.9-0.8V-205.8l-55.4-48.1
											l-55.4,48.1L242.2,1094.5z"/>
										<path id="path230" class="st5" d="M69.7,1072.7c32.3,7.1,69.1,13.2,110.9,17.3V-152.3L69.7-56V1072.7z"/>
									</g>
									<g id="g232">
										<g id="g234">
											<g id="g236">
												<g id="g238">
												</g>
												<defs>
													
														<filter id="Adobe_OpacityMaskFilter_00000151515254599557895190000008007647585152988567_" filterUnits="userSpaceOnUse" x="13.1" y="-641.8" width="569" height="569">
														<feColorMatrix  type="matrix" values="1 0 0 0 0  0 1 0 0 0  0 0 1 0 0  0 0 0 1 0"/>
													</filter>
												</defs>
												
													<mask maskUnits="userSpaceOnUse" x="13.1" y="-641.8" width="569" height="569" id="mask256_00000133496997983148353130000006036895606086694555_">
													
														<g id="g270_00000181061876610325677760000011213539452618423997_" style="filter:url(#Adobe_OpacityMaskFilter_00000151515254599557895190000008007647585152988567_);">
														<g>
															<defs>
																
																	<rect id="SVGID_00000021800852132294788070000006591439426533384596_" x="-193.4" y="476.8" width="569" height="569"/>
															</defs>
															<clipPath id="SVGID_00000000224761692217615930000017290790786284318910_">
																<use xlink:href="#SVGID_00000021800852132294788070000006591439426533384596_"  style="overflow:visible;"/>
															</clipPath>
															<g id="g268_00000008842026351959145570000012491285873014887557_">
																<g id="g266_00000086688929044729195340000014772700830966208146_" transform="translate(195.0279,295.5796)">
																	<g id="g264_00000123426926573246301460000009666516034384919442_">
																		<g id="g262_00000164502246590452213120000018195097808113304764_">
																			<g id="g260_00000136391900424547064110000012646711049609904041_">
																				
																					<radialGradient id="path258_00000088853136218434445760000003437882872719155077_" cx="-408.3789" cy="-164.1517" r="1.3891" gradientTransform="matrix(204.8148 0 0 -204.8152 83538.0625 -33155.0781)" gradientUnits="userSpaceOnUse">
																					<stop  offset="0" style="stop-color:#FFFFFF"/>
																					<stop  offset="0.4853" style="stop-color:#FFFFFF"/>
																					<stop  offset="1" style="stop-color:#FFFFFF;stop-opacity:0"/>
																				</radialGradient>
																				
																					<path id="path258_00000114042098727151116360000004497247710831023527_" style="clip-path:url(#SVGID_00000000224761692217615930000017290790786284318910_);fill-rule:evenodd;clip-rule:evenodd;fill:url(#path258_00000088853136218434445760000003437882872719155077_);" d="
																					M-317.4,679.1h426.8V252.3h-426.8V679.1z"/>
																			</g>
																		</g>
																	</g>
																</g>
															</g>
														</g>
													</g>
												</mask>
												<g id="g272" class="st21">
													<path id="path274" class="st2" d="M297.6,641.8c157.1,0,284.5-127.4,284.5-284.5c0-157.1-127.4-284.5-284.5-284.5
														S13.1,200.2,13.1,357.3C13.1,514.4,140.5,641.8,297.6,641.8"/>
												</g>
											</g>
											<g id="g276">
												<g id="g278">
												</g>
												<defs>
													
														<filter id="Adobe_OpacityMaskFilter_00000069367158578258665530000001503433137110545336_" filterUnits="userSpaceOnUse" x="13.1" y="-641.8" width="569" height="569">
														<feColorMatrix  type="matrix" values="1 0 0 0 0  0 1 0 0 0  0 0 1 0 0  0 0 0 1 0"/>
													</filter>
												</defs>
												
													<mask maskUnits="userSpaceOnUse" x="13.1" y="-641.8" width="569" height="569" id="mask296_00000088821526917318179580000002934213725734963378_">
													
														<g id="g310_00000180325691290972675310000014485765365968200630_" style="filter:url(#Adobe_OpacityMaskFilter_00000069367158578258665530000001503433137110545336_);">
														<g>
															<defs>
																
																	<rect id="SVGID_00000001623281603844993780000000003982598565334948_" x="-193.4" y="476.8" width="569" height="569"/>
															</defs>
															<clipPath id="SVGID_00000181771498270375165470000008024104993814787258_">
																<use xlink:href="#SVGID_00000001623281603844993780000000003982598565334948_"  style="overflow:visible;"/>
															</clipPath>
															<g id="g308_00000017483286583882948380000015334960559073160360_">
																<g id="g306_00000100369347639894022850000008490001970588859818_" transform="translate(195.0279,295.5796)">
																	<g id="g304_00000105417572481698327440000003699366041696194226_">
																		<g id="g302_00000145023380812041022560000001744490695535028356_">
																			<g id="g300_00000114768483324649811710000015693847626584474010_">
																				
																					<radialGradient id="path298_00000060708705870425583700000011439249434949156267_" cx="-408.3789" cy="-164.1517" r="1.3891" gradientTransform="matrix(204.8148 0 0 -204.8152 83538.0625 -33155.0781)" gradientUnits="userSpaceOnUse">
																					<stop  offset="0" style="stop-color:#FFFFFF"/>
																					<stop  offset="0.4853" style="stop-color:#FFFFFF"/>
																					<stop  offset="1" style="stop-color:#FFFFFF;stop-opacity:0"/>
																				</radialGradient>
																				
																					<path id="path298_00000109737369468154416650000016573450415647634623_" style="clip-path:url(#SVGID_00000181771498270375165470000008024104993814787258_);fill-rule:evenodd;clip-rule:evenodd;fill:url(#path298_00000060708705870425583700000011439249434949156267_);" d="
																					M-317.4,679.1h426.8V252.3h-426.8V679.1z"/>
																			</g>
																		</g>
																	</g>
																</g>
															</g>
														</g>
													</g>
												</mask>
												<g id="g312" class="st24">
													<path id="path314" class="st2" d="M297.6,641.8c157.1,0,284.5-127.4,284.5-284.5c0-157.1-127.4-284.5-284.5-284.5
														S13.1,200.2,13.1,357.3C13.1,514.4,140.5,641.8,297.6,641.8"/>
												</g>
											</g>
										</g>
										<g id="g316">
											<g id="g318">
												<g id="g320">
												</g>
												<defs>
													
														<filter id="Adobe_OpacityMaskFilter_00000078761279869036486170000014796533801935243672_" filterUnits="userSpaceOnUse" x="13.1" y="-641.8" width="569" height="569">
														<feColorMatrix  type="matrix" values="1 0 0 0 0  0 1 0 0 0  0 0 1 0 0  0 0 0 1 0"/>
													</filter>
												</defs>
												
													<mask maskUnits="userSpaceOnUse" x="13.1" y="-641.8" width="569" height="569" id="mask338_00000107560747891877258990000013912864009465855391_">
													
														<g id="g352_00000080202790768873234210000005277670475106206860_" style="filter:url(#Adobe_OpacityMaskFilter_00000078761279869036486170000014796533801935243672_);">
														<g>
															<defs>
																
																	<rect id="SVGID_00000168827544938542560480000009121639084327914888_" x="-193.4" y="476.8" width="569" height="569"/>
															</defs>
															<clipPath id="SVGID_00000170963002734522039490000017270431717523007153_">
																<use xlink:href="#SVGID_00000168827544938542560480000009121639084327914888_"  style="overflow:visible;"/>
															</clipPath>
															<g id="g350_00000047781296176876433260000009851137463959071363_">
																<g id="g348_00000003107290260534678410000016943751336006698682_" transform="translate(195.0279,295.5796)">
																	<g id="g346_00000058562491626309536950000000679442547133708464_">
																		<g id="g344_00000061442188834696748360000003790281896732534203_">
																			<g id="g342_00000147942093604463305090000011536184167263655832_">
																				
																					<radialGradient id="path340_00000173877516875184990260000003341721381824066948_" cx="-408.3789" cy="-164.1517" r="1.3891" gradientTransform="matrix(204.8148 0 0 -204.8152 83538.0625 -33155.0781)" gradientUnits="userSpaceOnUse">
																					<stop  offset="0" style="stop-color:#FFFFFF"/>
																					<stop  offset="0.4853" style="stop-color:#FFFFFF"/>
																					<stop  offset="1" style="stop-color:#FFFFFF;stop-opacity:0"/>
																				</radialGradient>
																				
																					<path id="path340_00000053542610665228835270000000569113079227938959_" style="clip-path:url(#SVGID_00000170963002734522039490000017270431717523007153_);fill-rule:evenodd;clip-rule:evenodd;fill:url(#path340_00000173877516875184990260000003341721381824066948_);" d="
																					M-317.4,679.1h426.8V252.3h-426.8V679.1z"/>
																			</g>
																		</g>
																	</g>
																</g>
															</g>
														</g>
													</g>
												</mask>
												<g id="g354" class="st27">
													<path id="path356" class="st2" d="M297.6,641.8c157.1,0,284.5-127.4,284.5-284.5c0-157.1-127.4-284.5-284.5-284.5
														S13.1,200.2,13.1,357.3C13.1,514.4,140.5,641.8,297.6,641.8"/>
												</g>
											</g>
											<g id="g358">
												<g id="g360">
												</g>
												<defs>
													
														<filter id="Adobe_OpacityMaskFilter_00000103254143298207022680000017286170998090627006_" filterUnits="userSpaceOnUse" x="13.1" y="-641.8" width="569" height="569">
														<feColorMatrix  type="matrix" values="1 0 0 0 0  0 1 0 0 0  0 0 1 0 0  0 0 0 1 0"/>
													</filter>
												</defs>
												
													<mask maskUnits="userSpaceOnUse" x="13.1" y="-641.8" width="569" height="569" id="mask378_00000170962678874505866600000012568408791842236043_">
													
														<g id="g392_00000074441740656486003820000010176082586956999553_" style="filter:url(#Adobe_OpacityMaskFilter_00000103254143298207022680000017286170998090627006_);">
														<g>
															<defs>
																
																	<rect id="SVGID_00000169523110561841398820000000297306546793268871_" x="-193.4" y="476.8" width="569" height="569"/>
															</defs>
															<clipPath id="SVGID_00000182519099001092844700000010931936964516635311_">
																<use xlink:href="#SVGID_00000169523110561841398820000000297306546793268871_"  style="overflow:visible;"/>
															</clipPath>
															<g id="g390_00000136411647362272451550000008338998021932460735_">
																<g id="g388_00000041986359460277509490000002166984048044377761_" transform="translate(195.0279,295.5796)">
																	<g id="g386_00000106857344914265172540000004288772376319285691_">
																		<g id="g384_00000039120678534699707870000016103974235245839551_">
																			<g id="g382_00000078732597016224504900000015082357589532053692_">
																				
																					<radialGradient id="path380_00000064339802041888088360000005172092329291511994_" cx="-408.3789" cy="-164.1517" r="1.3891" gradientTransform="matrix(204.8148 0 0 -204.8152 83538.0625 -33155.0781)" gradientUnits="userSpaceOnUse">
																					<stop  offset="0" style="stop-color:#FFFFFF"/>
																					<stop  offset="0.4853" style="stop-color:#FFFFFF"/>
																					<stop  offset="1" style="stop-color:#FFFFFF;stop-opacity:0"/>
																				</radialGradient>
																				
																					<path id="path380_00000122694521078177772050000004757717960556684945_" style="clip-path:url(#SVGID_00000182519099001092844700000010931936964516635311_);fill-rule:evenodd;clip-rule:evenodd;fill:url(#path380_00000064339802041888088360000005172092329291511994_);" d="
																					M-317.4,679.1h426.8V252.3h-426.8V679.1z"/>
																			</g>
																		</g>
																	</g>
																</g>
															</g>
														</g>
													</g>
												</mask>
												<g id="g394" class="st30">
													<path id="path396" class="st2" d="M297.6,641.8c157.1,0,284.5-127.4,284.5-284.5c0-157.1-127.4-284.5-284.5-284.5
														S13.1,200.2,13.1,357.3C13.1,514.4,140.5,641.8,297.6,641.8"/>
												</g>
											</g>
										</g>
									</g>
								</g>
							</g>
						</g>
					</g>
					<path id="path398" class="st31" d="M50.8,585.8v144.7c6.7,6.2,22.2,18.7,49.6,31c35.4,15.9,98.1,34.9,197.2,35.6
						c99.1-0.7,161.9-19.6,197.2-35.6c27.4-12.3,42.8-24.8,49.6-31V585.8H50.8z"/>
					<g id="g400">
						<g>
							<defs>
								<path id="SVGID_00000153707652347856324740000017843412368914182040_" d="M50.8,585.8v144.7c6.7,6.2,22.2,18.7,49.6,31
									c35.4,15.9,98.1,34.9,197.2,35.6c99.1-0.7,161.9-19.6,197.2-35.6c27.4-12.3,42.8-24.8,49.6-31V585.8H50.8z"/>
							</defs>
							<clipPath id="SVGID_00000093177614269714569120000017941381853890269826_">
								<use xlink:href="#SVGID_00000153707652347856324740000017843412368914182040_"  style="overflow:visible;"/>
							</clipPath>
							<g id="g402" style="clip-path:url(#SVGID_00000093177614269714569120000017941381853890269826_);">
								<g id="g408">
									<g id="g410">
										<g id="g412">
											<g id="g414">
												<g id="g416">
												</g>
												<defs>
													
														<filter id="Adobe_OpacityMaskFilter_00000047056291421666329060000011999279713387933608_" filterUnits="userSpaceOnUse" x="-108.9" y="-992.2" width="342.6" height="423.4">
														<feColorMatrix  type="matrix" values="1 0 0 0 0  0 1 0 0 0  0 0 1 0 0  0 0 0 1 0"/>
													</filter>
												</defs>
												
													<mask maskUnits="userSpaceOnUse" x="-108.9" y="-992.2" width="342.6" height="423.4" id="mask432_00000121980053824484980100000006397732556452267433_">
													
														<g id="g444_00000073691160355406298060000010948745164151622299_" style="filter:url(#Adobe_OpacityMaskFilter_00000047056291421666329060000011999279713387933608_);">
														<g id="g442_00000029036734549106877440000004505112766968273541_">
															<g id="g440_00000083081566471586367300000003982806596172049283_" transform="translate(151.1067,474.09)">
																<g id="g438_00000134938641460701470620000016363967365693039551_">
																	<g>
																		<defs>
																			
																				<rect id="SVGID_00000049202358562507482330000005405155673828273291_" x="-407.8" y="-241.9" width="342.6" height="423.4"/>
																		</defs>
																		<clipPath id="SVGID_00000155832977809107558620000007026618963438212541_">
																			<use xlink:href="#SVGID_00000049202358562507482330000005405155673828273291_"  style="overflow:visible;"/>
																		</clipPath>
																		<g id="g436_00000031915224666688539480000002236665353117652409_">
																			
																				<linearGradient id="path434_00000072267014826817298230000006566446254032711097_" gradientUnits="userSpaceOnUse" x1="-380.2779" y1="-387.6587" x2="-253.7325" y2="-568.8506" gradientTransform="matrix(1 0 0 -1 113.3301 -461.4679)">
																				<stop  offset="0" style="stop-color:#FFFFFF"/>
																				<stop  offset="1" style="stop-color:#FFFFFF;stop-opacity:0"/>
																			</linearGradient>
																			
																				<path id="path434_00000135671929773725963970000013610419182075009198_" style="clip-path:url(#SVGID_00000155832977809107558620000007026618963438212541_);fill-rule:evenodd;clip-rule:evenodd;fill:url(#path434_00000072267014826817298230000006566446254032711097_);" d="
																				M-364.9,128.6H-108V-189h-256.9V128.6z"/>
																		</g>
																	</g>
																</g>
															</g>
														</g>
													</g>
												</mask>
												<g id="g446" class="st35">
													<path id="path448" class="st36" d="M-108.9,928.2l91.5,63.9l251-359.5l-91.5-63.9L-108.9,928.2z"/>
												</g>
											</g>
											<g id="g450">
												<g id="g452">
												</g>
												<defs>
													
														<filter id="Adobe_OpacityMaskFilter_00000131359210097277697660000009248414487030247354_" filterUnits="userSpaceOnUse" x="-93.9" y="-981.7" width="312.5" height="402.5">
														<feColorMatrix  type="matrix" values="1 0 0 0 0  0 1 0 0 0  0 0 1 0 0  0 0 0 1 0"/>
													</filter>
												</defs>
												
													<mask maskUnits="userSpaceOnUse" x="-93.9" y="-981.7" width="312.5" height="402.5" id="mask468_00000004510244761541060170000003164149390432349623_">
													
														<g id="g480_00000008842493479694082020000008181584419415404223_" style="filter:url(#Adobe_OpacityMaskFilter_00000131359210097277697660000009248414487030247354_);">
														<g id="g478_00000071527633469059645610000005616667386584217994_">
															<g id="g476_00000052802553602261359440000013063989811593342851_" transform="translate(156.515,477.8666)">
																<g id="g474_00000183937864918069799500000009138982708356613020_">
																	<g>
																		<defs>
																			
																				<rect id="SVGID_00000092436412275252479410000007115205668176839569_" x="-398.2" y="-235.2" width="312.5" height="402.5"/>
																		</defs>
																		<clipPath id="SVGID_00000081626485863302262450000006110040147431507848_">
																			<use xlink:href="#SVGID_00000092436412275252479410000007115205668176839569_"  style="overflow:visible;"/>
																		</clipPath>
																		<g id="g472_00000119081254548874160090000013621787387653729710_">
																			
																				<linearGradient id="path470_00000156555024007038903890000008206524405685749167_" gradientUnits="userSpaceOnUse" x1="-389.729" y1="-394.2773" x2="-263.2114" y2="-575.4692" gradientTransform="matrix(1 0 0 -1 117.3863 -471.8536)">
																				<stop  offset="0" style="stop-color:#FFFFFF"/>
																				<stop  offset="1" style="stop-color:#FFFFFF;stop-opacity:0"/>
																			</linearGradient>
																			
																				<path id="path470_00000140698883472762394510000016454871517889973672_" style="clip-path:url(#SVGID_00000081626485863302262450000006110040147431507848_);fill-rule:evenodd;clip-rule:evenodd;fill:url(#path470_00000156555024007038903890000008206524405685749167_);" d="
																				M-359.1,117h234.4v-301.8h-234.4V117z"/>
																		</g>
																	</g>
																</g>
															</g>
														</g>
													</g>
												</mask>
												<g id="g482" class="st39">
													<path id="path484" class="st36" d="M-93.9,938.7l61.5,42.9l251-359.5l-61.5-42.9L-93.9,938.7z"/>
												</g>
											</g>
										</g>
										<g id="g486">
											<g id="g488">
												<g id="g490">
												</g>
												<defs>
													
														<filter id="Adobe_OpacityMaskFilter_00000103260181098967854130000000176209126228813751_" filterUnits="userSpaceOnUse" x="361.6" y="-992.2" width="342.6" height="423.4">
														<feColorMatrix  type="matrix" values="1 0 0 0 0  0 1 0 0 0  0 0 1 0 0  0 0 0 1 0"/>
													</filter>
												</defs>
												
													<mask maskUnits="userSpaceOnUse" x="361.6" y="-992.2" width="342.6" height="423.4" id="mask506_00000086662846737597899290000004930024778626854062_">
													
														<g id="g518_00000016051200421036425120000011294476191355685290_" style="filter:url(#Adobe_OpacityMaskFilter_00000103260181098967854130000000176209126228813751_);">
														<g id="g516_00000080184854696901717310000015030741718625408149_">
															<g id="g514_00000016055526004205063910000015064605698584093365_" transform="translate(320.4502,474.09)">
																<g id="g512_00000060030072245370754260000000034584896705729693_">
																	<g>
																		<defs>
																			
																				<rect id="SVGID_00000000917674546726953430000016521795143311186872_" x="-224.3" y="-241.9" width="342.6" height="423.4"/>
																		</defs>
																		<clipPath id="SVGID_00000162338656330028318780000002358815174239826087_">
																			<use xlink:href="#SVGID_00000000917674546726953430000016521795143311186872_"  style="overflow:visible;"/>
																		</clipPath>
																		<g id="g510_00000168832882390020182030000016140362177621105796_">
																			
																				<linearGradient id="path508_00000139288472746962159610000010626615449909834627_" gradientUnits="userSpaceOnUse" x1="-262.8406" y1="-387.6595" x2="-389.3583" y2="-568.8514" gradientTransform="matrix(1 0 0 -1 240.3377 -461.4679)">
																				<stop  offset="0" style="stop-color:#FFFFFF"/>
																				<stop  offset="1" style="stop-color:#FFFFFF;stop-opacity:0"/>
																			</linearGradient>
																			
																				<path id="path508_00000012439250920956519980000000776471111469017270_" style="clip-path:url(#SVGID_00000162338656330028318780000002358815174239826087_);fill-rule:evenodd;clip-rule:evenodd;fill:url(#path508_00000139288472746962159610000010626615449909834627_);" d="
																				M-181.4,128.6H75.5V-189h-256.9V128.6z"/>
																		</g>
																	</g>
																</g>
															</g>
														</g>
													</g>
												</mask>
												<g id="g520" class="st42">
													<path id="path522" class="st36" d="M704.2,928.2l-91.5,63.9l-251-359.5l91.5-63.9L704.2,928.2z"/>
												</g>
											</g>
											<g id="g524">
												<g id="g526">
												</g>
												<defs>
													
														<filter id="Adobe_OpacityMaskFilter_00000028322398115422889800000006003804411449745585_" filterUnits="userSpaceOnUse" x="376.6" y="-981.7" width="312.5" height="402.5">
														<feColorMatrix  type="matrix" values="1 0 0 0 0  0 1 0 0 0  0 0 1 0 0  0 0 0 1 0"/>
													</filter>
												</defs>
												
													<mask maskUnits="userSpaceOnUse" x="376.6" y="-981.7" width="312.5" height="402.5" id="mask542_00000017506483663768329080000000414822841840446602_">
													
														<g id="g554_00000086686221838904628690000011845286302184058809_" style="filter:url(#Adobe_OpacityMaskFilter_00000028322398115422889800000006003804411449745585_);">
														<g id="g552_00000124136680474294563760000004089088467843777156_">
															<g id="g550_00000042725400595696176840000010482583256231240639_" transform="translate(325.8584,477.8666)">
																<g id="g548_00000118394719768868793470000006216963196560544931_">
																	<g>
																		<defs>
																			
																				<rect id="SVGID_00000127746311581611580240000012093051986683384236_" x="-214.6" y="-235.2" width="312.5" height="402.5"/>
																		</defs>
																		<clipPath id="SVGID_00000037657320061184881230000003317772576847232161_">
																			<use xlink:href="#SVGID_00000127746311581611580240000012093051986683384236_"  style="overflow:visible;"/>
																		</clipPath>
																		<g id="g546_00000006709621751023827050000011368469580947704965_">
																			
																				<linearGradient id="path544_00000163059834277631606300000011830827398712830136_" gradientUnits="userSpaceOnUse" x1="-272.31" y1="-394.2748" x2="-398.8276" y2="-575.4667" gradientTransform="matrix(1 0 0 -1 244.3939 -471.8536)">
																				<stop  offset="0" style="stop-color:#FFFFFF"/>
																				<stop  offset="1" style="stop-color:#FFFFFF;stop-opacity:0"/>
																			</linearGradient>
																			
																				<path id="path544_00000073723645344191408950000014655996742948009637_" style="clip-path:url(#SVGID_00000037657320061184881230000003317772576847232161_);fill-rule:evenodd;clip-rule:evenodd;fill:url(#path544_00000163059834277631606300000011830827398712830136_);" d="
																				M-175.6,117H58.8v-301.8h-234.4V117z"/>
																		</g>
																	</g>
																</g>
															</g>
														</g>
													</g>
												</mask>
												<g id="g556" class="st45">
													<path id="path558" class="st36" d="M689.1,938.7l-61.5,42.9l-251-359.5l61.5-42.9L689.1,938.7z"/>
												</g>
											</g>
										</g>
									</g>
								</g>
							</g>
						</g>
					</g>
					<path id="path560" class="st46" d="M201,706.9v18.9h29.4c3.8,0,9,0.9,12.3,3.6c5.9,4.8,6.3,16,6.3,20.6
						c0,9.5-1.9,14.6-5.2,17.9c-3.9,3.9-9.1,4.6-14.7,4.6h-38.6c-4.8,0-7.8-1.8-9.3-3.4c-2.4-2.5-2.8-6.3-2.8-9v-53.2H201z
						 M201,742.1v10.2c0,1.4,0.3,3.8,3.9,3.8h12.5c2.6,0,5.2,0,7.1-1.5c1.8-1.4,2-3.5,2-5.2c0-2.7-0.7-4.6-1.8-5.7
						c-1.9-1.9-4.7-1.7-7.5-1.7H201z M286.2,706.9v25.9h30.4v14.8h-30.4v4.6c0,1.4,0.3,2.7,1.1,3.5c0.9,0.8,2.2,0.9,3.2,0.9h37.4
						v15.9h-52c-2.5,0-6.2-0.2-9.1-2.8c-2.7-2.4-3.2-5.5-3.2-8.2v-54.6L286.2,706.9z M416.8,706.9l-27.2,27.7
						c-2.5,2.5-2.9,4.7-2.9,6.1c0,1.7,1.1,3.6,2.1,4.7l24.3,27.1h-26.8l-18.8-24.7c-1.3-1.7-2.2-4.8-2.2-7.2c0-2.9,1.1-5.9,3.1-8.2
						l21.2-25.4L416.8,706.9z M339.7,706.9h22.6v65.6h-22.6V706.9z"/>
					<path id="path562" class="st47" d="M79.4,602.4h32.4l7.5,18.4h34.3l7.5-18.4h32.4l-35.3,79.7c-4.5,10-12.7,10.9-21.8,10.9
						c-14.7,0-18.8-4.2-21.8-10.9L79.4,602.4z M135.3,663.9c0.3,0.6,0.8,1.9,1.2,1.9c0.4,0,1-1.3,1.2-1.9l8.6-22.6h-19.6
						L135.3,663.9z M202.8,602.4h30.8v60.2c0,2.2-0.1,4,1.8,5.6c1.4,1.3,3,1.4,4.8,1.4h17c2.9,0,6.3,0.1,8.6-2.2
						c0.7-0.6,2.3-2.7,2.3-7.5c0-2.3-0.5-5.6-2-7.4c-2.2-2.4-5.9-2.7-8.6-2.7h-4.9c-7.9,0-13.8-4.1-13.8-10.1v-1.9
						c0-4.3,3.4-8.2,6.5-12.1l18.4-23.3h37l-27.2,26.7v0.5h4.1c7.4,0,14.2,3.2,17.7,11.1c3.3,7.3,3.5,17.9,3.5,22
						c0,6.8-0.8,14.7-4.9,20.5c-6.3,8.7-16.7,8.7-22.7,8.7h-51.9c-3.7,0-9.3-0.6-12.8-4.3c-3.4-3.6-3.7-8.7-3.7-12.8L202.8,602.4z
						 M305.9,602.4h32.4l7.5,18.4h34.3l7.5-18.4H420l-35.3,79.7c-4.5,10-12.7,10.9-21.8,10.9c-14.7,0-18.8-4.2-21.8-10.9
						L305.9,602.4z M361.7,663.9c0.3,0.6,0.8,1.9,1.2,1.9c0.4,0,1-1.3,1.2-1.9l8.6-22.6h-19.6L361.7,663.9z M515.8,602.4v22.2h-49.4
						c-1.6,0-3.7,0.1-4.9,1.2c-1.4,1.2-1.5,3.3-1.5,4.3v61.8h-30.8v-78c0-3.7,2-7,4.2-8.7c2.6-2,6.7-2.8,10.3-2.8L515.8,602.4z"/>
					<path id="path564" class="st46" d="M311.9,830.6l3.8-2l4.7,2.4l-8.9,4.6l-10.4-5.4l13.7-7.1l0,0l0,0l-13.7-7.1l10.4-5.4
						l8.9,4.6l-4.7,2.4l-3.8-2l-3.5,1.8l5.5,2.9l1.7,0.9l1.7-0.9l8.2-4.2l1.7-0.9l-1.7-0.9l-12.3-6.4l-1.7-0.9l-1.7,0.9l-12.1,6.3
						l-12.1-6.3l-1.7-0.9l-1.7,0.9l-12.3,6.4l-1.7,0.9l1.7,0.9l8.2,4.2l1.7,0.9l1.7-0.9l5.5-2.9l-3.5-1.8l-3.8,2l-4.7-2.4l8.9-4.6
						l10.4,5.4l0,0l-13.7,7.1l0,0l0,0l13.7,7.1l0,0l-10.4,5.4l-8.9-4.6l4.7-2.4l3.8,2l3.5-1.8l-5.5-2.9l-1.7-0.9l-1.7,0.9l-8.2,4.2
						l-1.7,0.9l1.7,0.9l12.3,6.4l1.7,0.9l1.7-0.9l12.1-6.3l12.1,6.3l1.7,0.9l1.7-0.9l12.3-6.4l1.7-0.9l-1.7-0.9l-8.2-4.2l-1.7-0.9
						l-1.7,0.9l-5.5,2.9L311.9,830.6z M307.8,823.2l-10.2,5.3l-10.2-5.3l10.2-5.3L307.8,823.2z"/>
					<path id="path566" class="st46" d="M245.3,828.2l4-1.6l4.5,2.8l-9.2,3.8l-9.9-6.2l14.2-5.9h0h0l-13-8.2l10.8-4.5l8.4,5.3
						l-4.9,2l-3.6-2.3l-3.6,1.5l5.3,3.3l1.7,1l1.8-0.7l8.5-3.5l1.8-0.7l-1.7-1l-11.8-7.4l-1.7-1l-1.8,0.7l-12.6,5.2l-11.6-7.3
						l-1.7-1l-1.8,0.7l-12.8,5.3l-1.8,0.7l1.7,1l7.8,4.9l1.7,1l1.8-0.7l5.8-2.4l-3.3-2.1l-4,1.6l-4.5-2.8l9.2-3.8l9.9,6.2l0,0
						l-14.2,5.9l0,0l0,0l13,8.2l0,0l-10.8,4.5l-8.4-5.3l4.9-2l3.6,2.3l3.6-1.5l-5.3-3.3l-1.7-1l-1.8,0.7l-8.5,3.5l-1.8,0.7l1.7,1
						l11.8,7.4l1.7,1l1.8-0.7l12.6-5.2l11.6,7.3l1.7,1l1.8-0.7l12.8-5.3l1.8-0.7l-1.7-1l-7.8-4.9l-1.7-1l-1.8,0.7l-5.8,2.4
						L245.3,828.2z M241.9,820.5l-10.6,4.4l-9.7-6.1l10.6-4.4L241.9,820.5z"/>
					<path id="path568" class="st46" d="M160.4,815.8L160.4,815.8L160.4,815.8z M177.7,819.7l4.1-1.2l4.1,3.3l-9.6,2.7l-9.1-7.4
						l14.8-4.1v0l0,0l-12-9.7l11.3-3.1l7.7,6.3l-5.1,1.4l-3.3-2.7l-3.8,1.1l4.8,3.9l1.5,1.2l1.9-0.5l8.9-2.5l1.9-0.5l-1.5-1.2
						l-10.8-8.7l-1.5-1.2l-1.9,0.5l-13.2,3.7l-10.6-8.6l-1.5-1.2l-1.9,0.5l-13.4,3.7l-1.9,0.5l1.5,1.2l7.2,5.8l1.5,1.2l1.9-0.5
						l6-1.7l-3-2.5l-4.1,1.1l-4.1-3.3l9.6-2.7l9.1,7.4l0,0l-14.8,4.1l0,0l0,0l12,9.7h0l-11.3,3.1l-7.7-6.3l5.1-1.4l3.3,2.7l3.8-1.1
						l-4.8-3.9l-1.5-1.2l-1.9,0.5l-8.9,2.5l-1.9,0.5l1.5,1.2l10.8,8.7l1.5,1.2l1.9-0.5l13.2-3.7l10.6,8.6l1.5,1.2l1.9-0.5l13.4-3.7
						l1.9-0.5l-1.5-1.2l-7.2-5.8l-1.5-1.2l-1.9,0.5l-6,1.7L177.7,819.7z M175.2,811.7l-11.1,3.1l-8.9-7.2l11.1-3.1L175.2,811.7z"/>
					<path id="path570" class="st46" d="M43.4,748L43.4,748 M49,770.1l4.2,0.7l2.3,4.7l-9.8-1.6l-5.2-10.5l15.2,2.5l0,0h0l-6.8-13.8
						l11.6,1.9l4.4,8.9l-5.2-0.8l-1.9-3.8l-3.9-0.6l2.8,5.6l0.9,1.8l1.9,0.3l9.1,1.5l1.9,0.3l-0.9-1.8l-6.1-12.5l-0.9-1.8l-1.9-0.3
						l-13.5-2.2l-6-12.3l-0.9-1.8l-1.9-0.3l-13.7-2.2l-1.9-0.3l0.9,1.8l4.1,8.3l0.9,1.8l1.9,0.3l6.2,1l-1.7-3.5l-4.2-0.7l-2.3-4.7
						l9.8,1.6l5.2,10.5h0l-15.2-2.5l0,0l0,0l6.8,13.8l0,0l-11.6-1.9l-4.4-8.9l5.2,0.8l1.9,3.8l3.9,0.6l-2.8-5.6l-0.9-1.8l-1.9-0.3
						l-9.1-1.5l-1.9-0.3l0.9,1.8l6.1,12.5l0.9,1.8l1.9,0.3l13.5,2.2l6,12.3l0.9,1.8l1.9,0.3l13.7,2.2l1.9,0.3l-0.9-1.8l-4.1-8.3
						l-0.9-1.8l-1.9-0.3l-6.2-1L49,770.1z M50.1,761.8L38.8,760l-5.1-10.3l11.3,1.8L50.1,761.8z"/>
					<path id="path572" class="st46" d="M111.3,801.7l4.3-0.5l3.5,4l-9.9,1.1l-7.8-8.8l15.3-1.6l0,0l0,0l-10.2-11.5l11.6-1.2
						l6.6,7.5l-5.3,0.6l-2.8-3.2l-3.9,0.4l4.1,4.7l1.3,1.5l1.9-0.2l9.2-1l1.9-0.2l-1.3-1.5l-9.2-10.4l-1.3-1.5l-1.9,0.2l-13.6,1.5
						l-9.1-10.2l-1.3-1.5l-1.9,0.2l-13.8,1.5l-1.9,0.2l1.3,1.5l6.1,6.9l1.3,1.5l1.9-0.2l6.2-0.7l-2.6-2.9l-4.3,0.5l-3.5-4l9.9-1.1
						l7.8,8.8l0,0l-15.3,1.6h0h0L94.9,795l0,0l-11.6,1.2l-6.6-7.5l5.3-0.6l2.8,3.2l3.9-0.4l-4.1-4.7l-1.3-1.5l-1.9,0.2l-9.2,1
						l-1.9,0.2l1.3,1.5l9.2,10.4l1.3,1.5l1.9-0.2l13.6-1.5l9.1,10.2l1.3,1.5l1.9-0.2l13.8-1.5l1.9-0.2l-1.3-1.5l-6.1-6.9l-1.3-1.5
						l-1.9,0.2l-6.2,0.7L111.3,801.7z M110.2,793.4l-11.4,1.2l-7.6-8.6l11.4-1.2L110.2,793.4z"/>
					<path id="path574" class="st46" d="M18,707l2,3.8l-2.4,4.7l-4.6-8.9l5.4-10.4l7.1,13.7l0,0l0,0l7.1-13.7l5.4,10.4l-4.6,8.9
						l-2.4-4.7l2-3.8l-1.8-3.5l-2.9,5.5l-0.9,1.7l0.9,1.7l4.2,8.2l0.9,1.7l0.9-1.7l6.4-12.3l0.9-1.7l-0.9-1.7l-6.3-12.1l6.3-12.1
						l0.9-1.7l-0.9-1.7l-6.4-12.3l-0.9-1.7l-0.9,1.7l-4.2,8.2l-0.9,1.7l0.9,1.7l2.9,5.5l1.8-3.5l-2-3.8l2.4-4.7l4.6,8.9l-5.4,10.4
						l0,0l-7.1-13.7l0,0l0,0l-7.1,13.7l0,0l-5.4-10.4l4.6-8.9l2.4,4.7l-2,3.8l1.8,3.5l2.9-5.5l0.9-1.7l-0.9-1.7l-4.2-8.2l-0.9-1.7
						l-0.9,1.7l-6.4,12.3l-0.9,1.7l0.9,1.7l6.3,12.1l-6.3,12.1l-0.9,1.7l0.9,1.7l6.4,12.3l0.9,1.7l0.9-1.7l4.2-8.2l0.9-1.7l-0.9-1.7
						l-2.9-5.5L18,707z M25.4,703l-5.3-10.2l5.3-10.2l5.3,10.2L25.4,703z"/>
					<path id="path576" class="st46" d="M18,635.1l2,3.8l-2.4,4.7l-4.6-8.9l5.4-10.4l7.1,13.7l0,0l0,0l7.1-13.7l5.4,10.4l-4.6,8.9
						l-2.4-4.7l2-3.8l-1.8-3.5l-2.9,5.5l-0.9,1.7l0.9,1.7l4.2,8.2l0.9,1.7l0.9-1.7l6.4-12.3l0.9-1.7l-0.9-1.7l-6.3-12.1l6.3-12.1
						l0.9-1.7l-0.9-1.7l-6.4-12.3l-0.9-1.7l-0.9,1.7l-4.2,8.2l-0.9,1.7l0.9,1.7l2.9,5.5l1.8-3.5l-2-3.8l2.4-4.7l4.6,8.9l-5.4,10.4
						l0,0l-7.1-13.7l0,0l0,0l-7.1,13.7l0,0L12.9,607l4.6-8.9l2.4,4.7l-2,3.8l1.8,3.5l2.9-5.5l0.9-1.7l-0.9-1.7l-4.2-8.2l-0.9-1.7
						l-0.9,1.7l-6.4,12.3L9.3,607l0.9,1.7l6.3,12.1L10.2,633l-0.9,1.7l0.9,1.7l6.4,12.3l0.9,1.7l0.9-1.7l4.2-8.2l0.9-1.7l-0.9-1.7
						l-2.9-5.5L18,635.1z M25.4,631.1l-5.3-10.2l5.3-10.2l5.3,10.2L25.4,631.1z"/>
					<path id="path578" class="st46" d="M18,563.2l2,3.8l-2.4,4.7l-4.6-8.9l5.4-10.4l7.1,13.7l0,0l0,0l7.1-13.7l5.4,10.4l-4.6,8.9
						l-2.4-4.7l2-3.8l-1.8-3.5l-2.9,5.5l-0.9,1.7l0.9,1.7l4.2,8.2l0.9,1.7l0.9-1.7l6.4-12.3l0.9-1.7l-0.9-1.7L34.2,549l6.3-12.1
						l0.9-1.7l-0.9-1.7L34.1,521l-0.9-1.7l-0.9,1.7l-4.2,8.2l-0.9,1.7l0.9,1.7l2.9,5.5l1.8-3.5l-2-3.8l2.4-4.7l4.6,8.9l-5.4,10.4
						l0,0l-7.1-13.7l0,0l0,0l-7.1,13.7l0,0l-5.4-10.4l4.6-8.9l2.4,4.7l-2,3.8l1.8,3.5l2.9-5.5l0.9-1.7l-0.9-1.7l-4.2-8.2l-0.9-1.7
						l-0.9,1.7l-6.4,12.3l-0.9,1.7l0.9,1.7l6.3,12.1l-6.3,12.1l-0.9,1.7l0.9,1.7l6.4,12.3l0.9,1.7l0.9-1.7l4.2-8.2l0.9-1.7l-0.9-1.7
						l-2.9-5.5L18,563.2z M25.4,559.2L20.1,549l5.3-10.2l5.3,10.2L25.4,559.2z"/>
					<path id="path580" class="st46" d="M18,491.3l2,3.8l-2.4,4.7l-4.6-8.9l5.4-10.4l7.1,13.7v0v0l7.1-13.7l5.4,10.4l-4.6,8.9
						l-2.4-4.7l2-3.8l-1.8-3.5l-2.9,5.5l-0.9,1.7l0.9,1.7l4.2,8.2l0.9,1.7l0.9-1.7l6.4-12.3l0.9-1.7l-0.9-1.7l-6.3-12.1l6.3-12.1
						l0.9-1.7l-0.9-1.7l-6.4-12.3l-0.9-1.7l-0.9,1.7l-4.2,8.2l-0.9,1.7l0.9,1.7l2.9,5.5l1.8-3.5l-2-3.8l2.4-4.7l4.6,8.9l-5.4,10.4
						l0,0l-7.1-13.7l0,0l0,0l-7.1,13.7l0,0l-5.4-10.4l4.6-8.9l2.4,4.7l-2,3.8l1.8,3.5l2.9-5.5l0.9-1.7l-0.9-1.7l-4.2-8.2l-0.9-1.7
						l-0.9,1.7l-6.4,12.3l-0.9,1.7l0.9,1.7l6.3,12.1l-6.3,12.1l-0.9,1.7l0.9,1.7l6.4,12.3l0.9,1.7l0.9-1.7l4.2-8.2l0.9-1.7l-0.9-1.7
						l-2.9-5.5L18,491.3z M25.4,487.3l-5.3-10.2l5.3-10.2l5.3,10.2L25.4,487.3z"/>
					<path id="path582" class="st46" d="M18.3,401.7L18.3,401.7 M32.4,401.7L32.4,401.7 M18,419.4l2,3.8l-2.4,4.7l-4.6-8.9l5.4-10.4
						l7.1,13.7l0,0l0,0l7.1-13.7l5.4,10.4l-4.6,8.9l-2.4-4.7l2-3.8l-1.8-3.5l-2.9,5.5l-0.9,1.7l0.9,1.7l4.2,8.2l0.9,1.7l0.9-1.7
						l6.4-12.3l0.9-1.7l-0.9-1.7l-6.3-12.1l6.3-12.1l0.9-1.7l-0.9-1.7l-6.4-12.3l-0.9-1.7l-0.9,1.7l-4.2,8.2l-0.9,1.7l0.9,1.7
						l2.9,5.5l1.8-3.5l-2-3.8l2.4-4.7l4.6,8.9l-5.4,10.4v0L25.4,388l0,0l0,0l-7.1,13.7v0l-5.4-10.4l4.6-8.9l2.4,4.7l-2,3.8l1.8,3.5
						l2.9-5.5l0.9-1.7l-0.9-1.7l-4.2-8.2l-0.9-1.7l-0.9,1.7l-6.4,12.3l-0.9,1.7l0.9,1.7l6.3,12.1l-6.3,12.1L9.3,419l0.9,1.7
						l6.4,12.3l0.9,1.7l0.9-1.7l4.2-8.2l0.9-1.7l-0.9-1.7l-2.9-5.5L18,419.4z M25.4,415.3l-5.3-10.2l5.3-10.2l5.3,10.2L25.4,415.3z"
						/>
					<path id="path584" class="st46" d="M18,347.5l2,3.8l-2.4,4.7l-4.6-8.9l5.4-10.4l7.1,13.7v0v0l7.1-13.7l5.4,10.4l-4.6,8.9
						l-2.4-4.7l2-3.8l-1.8-3.5l-2.9,5.5l-0.9,1.7l0.9,1.7l4.2,8.2l0.9,1.7l0.9-1.7l6.4-12.3l0.9-1.7l-0.9-1.7l-6.3-12.1l6.3-12.1
						l0.9-1.7l-0.9-1.7l-6.4-12.3l-0.9-1.7l-0.9,1.7l-4.2,8.2l-0.9,1.7l0.9,1.7l2.9,5.5l1.8-3.5l-2-3.8l2.4-4.7l4.6,8.9l-5.4,10.4
						l0,0l-7.1-13.7l0,0l0,0l-7.1,13.7l0,0l-5.4-10.4l4.6-8.9l2.4,4.7l-2,3.8l1.8,3.5l2.9-5.5l0.9-1.7l-0.9-1.7l-4.2-8.2l-0.9-1.7
						l-0.9,1.7l-6.4,12.3l-0.9,1.7l0.9,1.7l6.3,12.1l-6.3,12.1l-0.9,1.7l0.9,1.7l6.4,12.3l0.9,1.7l0.9-1.7l4.2-8.2l0.9-1.7l-0.9-1.7
						l-2.9-5.5L18,347.5z M25.4,343.4l-5.3-10.2l5.3-10.2l5.3,10.2L25.4,343.4z"/>
					<path id="path586" class="st46" d="M18,280.9l2,3.8l-2.4,4.7l-4.6-8.9l5.4-10.4l7.1,13.7l0,0l0,0l7.1-13.7l5.4,10.4l-4.6,8.9
						l-2.4-4.7l2-3.8l-1.8-3.5l-2.9,5.5l-0.9,1.7l0.9,1.7l4.2,8.2l0.9,1.7l0.9-1.7l6.4-12.3l0.9-1.7l-0.9-1.7l-6.3-12.1l6.3-12.1
						l0.9-1.7l-0.9-1.7l-6.4-12.3l-0.9-1.7l-0.9,1.7l-4.2,8.2l-0.9,1.7l0.9,1.7l2.9,5.5l1.8-3.5l-2-3.8l2.4-4.7l4.6,8.9l-5.4,10.4
						l0,0l-7.1-13.7l0,0l0,0l-7.1,13.7l0,0l-5.4-10.4l4.6-8.9l2.4,4.7l-2,3.8l1.8,3.5l2.9-5.5l0.9-1.7l-0.9-1.7l-4.2-8.2l-0.9-1.7
						l-0.9,1.7L10.2,251l-0.9,1.7l0.9,1.7l6.3,12.1l-6.3,12.1l-0.9,1.7l0.9,1.7l6.4,12.3l0.9,1.7l0.9-1.7l4.2-8.2l0.9-1.7l-0.9-1.7
						l-2.9-5.5L18,280.9z M25.4,276.8l-5.3-10.2l5.3-10.2l5.3,10.2L25.4,276.8z"/>
					<path id="path588" class="st46" d="M49.7,217.2l-1.6,4l-5.1,1.3l3.7-9.3l11.4-2.8l-5.7,14.3l0,0l0,0l15-3.7L63,231.9l-9.7,2.4
						l2-4.9l4.2-1l1.4-3.6l-6.1,1.5l-1.9,0.5l-0.7,1.8l-3.4,8.6l-0.7,1.8l1.9-0.5l13.5-3.3l1.9-0.5l0.7-1.8l5-12.7l13.3-3.3l1.9-0.5
						l0.7-1.8l5.1-12.9l0.7-1.8l-1.9,0.5l-8.9,2.2l-1.9,0.5l-0.7,1.8l-2.3,5.8l3.8-0.9l1.6-4l5.1-1.3l-3.7,9.3l-11.4,2.8l0,0
						l5.7-14.3l0,0l0,0l-15,3.7l0,0l4.3-10.9l9.7-2.4l-2,4.9l-4.2,1l-1.4,3.6l6.1-1.5l1.9-0.5l0.7-1.8l3.4-8.6l0.7-1.8l-1.9,0.5
						l-13.5,3.3l-1.9,0.5l-0.7,1.8l-5,12.7L46.2,210l-1.9,0.5l-0.7,1.8l-5.1,12.9l-0.7,1.8l1.9-0.5l8.9-2.2l1.9-0.5l0.7-1.8l2.3-5.8
						L49.7,217.2z M57.6,220.1l4.2-10.7l11.1-2.7l-4.2,10.7L57.6,220.1z"/>
					<path id="path590" class="st46" d="M100.1,173.4l-1.6,4l-5.1,1.3l3.7-9.3l11.4-2.8l-5.7,14.3l0,0l0,0l15-3.7l-4.3,10.9
						l-9.7,2.4l2-4.9l4.2-1l1.4-3.6l-6.1,1.5l-1.9,0.5l-0.7,1.8l-3.4,8.6l-0.7,1.8l1.9-0.5l13.5-3.3l1.9-0.5l0.7-1.8l5-12.7
						l13.3-3.3l1.9-0.5l0.7-1.8l5.1-12.9l0.7-1.8l-1.9,0.5l-8.9,2.2l-1.9,0.5l-0.7,1.8l-2.3,5.8l3.8-0.9l1.6-4l5.1-1.3l-3.7,9.3
						l-11.4,2.8l0,0l5.7-14.3l0,0l0,0l-15,3.7l0,0l4.3-10.9l9.7-2.4l-2,4.9l-4.2,1l-1.4,3.6l6.1-1.5l1.9-0.5l0.7-1.8l3.4-8.6
						l0.7-1.8l-1.9,0.5l-13.5,3.3l-1.9,0.5l-0.7,1.8l-5,12.7l-13.3,3.2l-1.9,0.5l-0.7,1.8l-5.1,12.9l-0.7,1.8l1.9-0.5l8.9-2.2
						l1.9-0.5l0.7-1.8l2.3-5.8L100.1,173.4z M108,176.3l4.2-10.7l11.1-2.7l-4.2,10.7L108,176.3z"/>
					<path id="path592" class="st46" d="M172.4,129.1L172.4,129.1 M149.6,129.8l-1.6,4l-5.1,1.3l3.7-9.3l11.4-2.8l-5.7,14.3l0,0l0,0
						l15-3.7l-4.3,10.9l-9.7,2.4l2-4.9l4.2-1l1.4-3.6l-6.1,1.5l-1.9,0.5l-0.7,1.8l-3.4,8.6l-0.7,1.8l1.9-0.5l13.5-3.3l1.9-0.5
						l0.7-1.8l5-12.7l13.3-3.2l1.9-0.5l0.7-1.8l5.1-12.9l0.7-1.8l-1.9,0.5l-8.9,2.2l-1.9,0.5l-0.7,1.8l-2.3,5.8l3.8-0.9l1.6-4
						l5.1-1.3l-3.7,9.3l-11.4,2.8h0l5.7-14.3l0,0l0,0l-15,3.7l0,0l4.3-10.9l9.7-2.4l-2,4.9l-4.2,1l-1.4,3.6l6.1-1.5l1.9-0.5l0.7-1.8
						l3.4-8.6l0.7-1.8l-1.9,0.5l-13.5,3.3l-1.9,0.5l-0.7,1.8l-5,12.7l-13.3,3.2l-1.9,0.5l-0.7,1.8l-5.1,12.9l-0.7,1.8l1.9-0.5
						l8.9-2.2l1.9-0.5l0.7-1.8l2.3-5.8L149.6,129.8z M157.5,132.7l4.2-10.7l11.1-2.7l-4.2,10.7L157.5,132.7z"/>
					<path id="path594" class="st46" d="M366.5,812.3L366.5,812.3 M350,828.2l-4-1.6l-4.5,2.8l9.2,3.8l9.9-6.2l-14.2-5.9l0,0l0,0
						l13-8.2l-10.8-4.5l-8.4,5.3l4.9,2l3.6-2.3l3.6,1.5l-5.3,3.3l-1.7,1l-1.8-0.7l-8.5-3.5l-1.8-0.7l1.7-1l11.8-7.4l1.7-1l1.8,0.7
						l12.6,5.2l11.6-7.3l1.7-1l1.8,0.7l12.8,5.3l1.8,0.7l-1.7,1l-7.8,4.9l-1.7,1l-1.8-0.7l-5.8-2.4l3.3-2.1l4,1.6l4.5-2.8l-9.2-3.8
						l-9.9,6.2h0l14.2,5.9l0,0l0,0l-13,8.2l0,0l10.8,4.5l8.4-5.3l-4.9-2l-3.6,2.3l-3.6-1.5l5.3-3.3l1.7-1l1.8,0.7l8.5,3.5l1.8,0.7
						l-1.7,1l-11.8,7.4l-1.7,1l-1.8-0.7l-12.6-5.2l-11.6,7.3l-1.7,1l-1.8-0.7l-12.8-5.3l-1.8-0.7l1.7-1l7.8-4.9l1.7-1l1.8,0.7
						l5.8,2.4L350,828.2z M353.4,820.5l10.6,4.4l9.7-6.1l-10.6-4.4L353.4,820.5z"/>
					<path id="path596" class="st46" d="M417.6,819.7l-4.1-1.2l-4.1,3.3l9.6,2.7l9.1-7.4l-14.8-4.1v0l0,0l12-9.7l-11.3-3.1l-7.7,6.3
						l5.1,1.4l3.3-2.7l3.8,1.1l-4.8,3.9l-1.5,1.2l-1.9-0.5l-8.9-2.5l-1.9-0.5l1.5-1.2l10.8-8.7l1.5-1.2l1.9,0.5l13.2,3.7l10.6-8.6
						l1.5-1.2l1.9,0.5l13.4,3.7l1.9,0.5l-1.5,1.2l-7.2,5.8l-1.5,1.2l-1.9-0.5l-6-1.7l3-2.5l4.1,1.1l4.1-3.3l-9.6-2.7L432,802l0,0
						l14.8,4.1l0,0l0,0l-12,9.7l0,0l11.3,3.1l7.7-6.3l-5.1-1.4l-3.3,2.7l-3.8-1.1l4.8-3.9l1.5-1.2l1.9,0.5l8.9,2.5l1.9,0.5l-1.5,1.2
						l-10.8,8.7l-1.5,1.2l-1.9-0.5l-13.2-3.7l-10.6,8.6l-1.5,1.2l-1.9-0.5l-13.4-3.7l-1.9-0.5l1.5-1.2l7.2-5.8l1.5-1.2l1.9,0.5
						l6,1.7L417.6,819.7z M420.1,811.7l11.1,3.1l8.9-7.2l-11.1-3.1L420.1,811.7z"/>
					<path id="path598" class="st46" d="M546.3,770.2l-4.2,0.7l-2.3,4.7l9.8-1.6l5.2-10.5l-15.2,2.5l0,0l0,0l6.8-13.8l-11.6,1.9
						l-4.4,8.9l5.2-0.8l1.9-3.8l3.9-0.6l-2.8,5.6l-0.9,1.8l-1.9,0.3l-9.1,1.5l-1.9,0.3l0.9-1.8l6.1-12.5l0.9-1.8l1.9-0.3l13.5-2.2
						l6-12.3l0.9-1.8l1.9-0.3l13.7-2.2l1.9-0.3l-0.9,1.8l-4.1,8.3l-0.9,1.8l-1.9,0.3l-6.2,1l1.7-3.5l4.2-0.7l2.3-4.7l-9.8,1.6
						l-5.2,10.5l0,0l15.2-2.5l0,0l0,0l-6.8,13.8l0,0l11.6-1.9l4.4-8.9l-5.2,0.8l-1.9,3.8l-3.9,0.6l2.8-5.6l0.9-1.8l1.9-0.3l9.1-1.5
						l1.9-0.3l-0.9,1.8l-6.1,12.5l-0.9,1.8l-1.9,0.3l-13.5,2.2l-6,12.3l-0.9,1.8l-1.9,0.3l-13.7,2.2l-1.9,0.3l0.9-1.8l4.1-8.3
						l0.9-1.8l1.9-0.3l6.2-1L546.3,770.2z M545.1,761.8l11.3-1.8l5.1-10.3l-11.3,1.8L545.1,761.8z"/>
					<path id="path600" class="st46" d="M484,801.7l-4.3-0.5l-3.5,4l9.9,1.1l7.8-8.8l-15.3-1.6v0l0,0l10.2-11.5l-11.6-1.2l-6.6,7.5
						l5.3,0.6l2.8-3.2l3.9,0.4l-4.1,4.7l-1.3,1.5l-1.9-0.2l-9.2-1l-1.9-0.2l1.3-1.5l9.2-10.4l1.3-1.5l1.9,0.2l13.6,1.5l9.1-10.2
						l1.3-1.5l1.9,0.2l13.8,1.5l1.9,0.2l-1.3,1.5l-6.1,6.9l-1.3,1.5l-1.9-0.2l-6.2-0.7l2.6-2.9l4.3,0.5l3.5-4l-9.9-1.1l-7.8,8.8l0,0
						l15.3,1.6l0,0l0,0L500.4,795l0,0l11.6,1.2l6.6-7.5l-5.3-0.6l-2.8,3.2l-3.9-0.4l4.1-4.7l1.3-1.5l1.9,0.2l9.2,1l1.9,0.2l-1.3,1.5
						l-9.2,10.4l-1.3,1.5l-1.9-0.2l-13.6-1.5l-9.1,10.2l-1.3,1.5l-1.9-0.2l-13.8-1.5l-1.9-0.2l1.3-1.5l6.1-6.9l1.3-1.5l1.9,0.2
						l6.2,0.7L484,801.7z M485.1,793.4l11.4,1.2l7.6-8.6l-11.4-1.2L485.1,793.4z"/>
					<path id="path602" class="st46" d="M577.3,707l-2,3.8l2.4,4.7l4.6-8.9l-5.4-10.4l-7.1,13.7l0,0l0,0l-7.1-13.7l-5.4,10.4
						l4.6,8.9l2.4-4.7l-2-3.8l1.8-3.5l2.9,5.5l0.9,1.7l-0.9,1.7l-4.2,8.2l-0.9,1.7l-0.9-1.7l-6.4-12.3l-0.9-1.7l0.9-1.7l6.3-12.1
						l-6.3-12.1l-0.9-1.7l0.9-1.7l6.4-12.3l0.9-1.7l0.9,1.7l4.2,8.2l0.9,1.7l-0.9,1.7l-2.9,5.5l-1.8-3.5l2-3.8l-2.4-4.7l-4.6,8.9
						l5.4,10.4l0,0l7.1-13.7l0,0l0,0l7.1,13.7l0,0l5.4-10.4l-4.6-8.9l-2.4,4.7l2,3.8l-1.8,3.5l-2.9-5.5l-0.9-1.7l0.9-1.7l4.2-8.2
						l0.9-1.7l0.9,1.7l6.4,12.3l0.9,1.7l-0.9,1.7l-6.3,12.1l6.3,12.1l0.9,1.7l-0.9,1.7l-6.4,12.3l-0.9,1.7l-0.9-1.7l-4.2-8.2
						l-0.9-1.7l0.9-1.7l2.9-5.5L577.3,707z M569.9,703l5.3-10.2l-5.3-10.2l-5.3,10.2L569.9,703z"/>
					<path id="path604" class="st46" d="M577.3,635.1l-2,3.8l2.4,4.7l4.6-8.9l-5.4-10.4l-7.1,13.7l0,0l0,0l-7.1-13.7l-5.4,10.4
						l4.6,8.9l2.4-4.7l-2-3.8l1.8-3.5l2.9,5.5l0.9,1.7l-0.9,1.7l-4.2,8.2l-0.9,1.7l-0.9-1.7l-6.4-12.3l-0.9-1.7l0.9-1.7l6.3-12.1
						l-6.3-12.1l-0.9-1.7l0.9-1.7l6.4-12.3l0.9-1.7l0.9,1.7l4.2,8.2l0.9,1.7l-0.9,1.7l-2.9,5.5l-1.8-3.5l2-3.8l-2.4-4.7l-4.6,8.9
						l5.4,10.4l0,0l7.1-13.7l0,0l0,0l7.1,13.7l0,0l5.4-10.4l-4.6-8.9l-2.4,4.7l2,3.8l-1.8,3.5l-2.9-5.5l-0.9-1.7l0.9-1.7l4.2-8.2
						l0.9-1.7l0.9,1.7l6.4,12.3l0.9,1.7l-0.9,1.7l-6.3,12.1L585,633l0.9,1.7l-0.9,1.7l-6.4,12.3l-0.9,1.7l-0.9-1.7l-4.2-8.2
						l-0.9-1.7l0.9-1.7l2.9-5.5L577.3,635.1z M569.9,631.1l5.3-10.2l-5.3-10.2l-5.3,10.2L569.9,631.1z"/>
					<path id="path606" class="st46" d="M577.3,563.2l-2,3.8l2.4,4.7l4.6-8.9l-5.4-10.4l-7.1,13.7l0,0l0,0l-7.1-13.7l-5.4,10.4
						l4.6,8.9l2.4-4.7l-2-3.8l1.8-3.5l2.9,5.5l0.9,1.7l-0.9,1.7l-4.2,8.2l-0.9,1.7l-0.9-1.7l-6.4-12.3l-0.9-1.7l0.9-1.7l6.3-12.1
						l-6.3-12.1l-0.9-1.7l0.9-1.7l6.4-12.3l0.9-1.7l0.9,1.7l4.2,8.2l0.9,1.7l-0.9,1.7l-2.9,5.5l-1.8-3.5l2-3.8l-2.4-4.7l-4.6,8.9
						l5.4,10.4l0,0l7.1-13.7l0,0l0,0l7.1,13.7l0,0l5.4-10.4l-4.6-8.9l-2.4,4.7l2,3.8l-1.8,3.5l-2.9-5.5l-0.9-1.7l0.9-1.7l4.2-8.2
						l0.9-1.7l0.9,1.7l6.4,12.3l0.9,1.7l-0.9,1.7l-6.3,12.1l6.3,12.1l0.9,1.7l-0.9,1.7l-6.4,12.3l-0.9,1.7l-0.9-1.7l-4.2-8.2
						l-0.9-1.7l0.9-1.7l2.9-5.5L577.3,563.2z M569.9,559.2l5.3-10.2l-5.3-10.2l-5.3,10.2L569.9,559.2z"/>
					<path id="path608" class="st46" d="M577.3,491.3l-2,3.8l2.4,4.7l4.6-8.9l-5.4-10.4l-7.1,13.7l0,0l0,0l-7.1-13.7l-5.4,10.4
						l4.6,8.9l2.4-4.7l-2-3.8l1.8-3.5l2.9,5.5l0.9,1.7l-0.9,1.7L563,505l-0.9,1.7l-0.9-1.7l-6.4-12.3l-0.9-1.7l0.9-1.7l6.3-12.1
						l-6.3-12.1l-0.9-1.7l0.9-1.7l6.4-12.3l0.9-1.7l0.9,1.7l4.2,8.2l0.9,1.7l-0.9,1.7l-2.9,5.5l-1.8-3.5l2-3.8l-2.4-4.7l-4.6,8.9
						l5.4,10.4l0,0l7.1-13.7l0,0l0,0l7.1,13.7l0,0l5.4-10.4l-4.6-8.9l-2.4,4.7l2,3.8l-1.8,3.5l-2.9-5.5l-0.9-1.7l0.9-1.7l4.2-8.2
						l0.9-1.7l0.9,1.7l6.4,12.3l0.9,1.7l-0.9,1.7l-6.3,12.1l6.3,12.1l0.9,1.7l-0.9,1.7l-6.4,12.3l-0.9,1.7l-0.9-1.7l-4.2-8.2
						l-0.9-1.7l0.9-1.7l2.9-5.5L577.3,491.3z M569.9,487.3l5.3-10.2l-5.3-10.2l-5.3,10.2L569.9,487.3z"/>
					<path id="path610" class="st46" d="M577,401.7L577,401.7 M562.9,401.7L562.9,401.7 M577.3,419.4l-2,3.8l2.4,4.7l4.6-8.9
						l-5.4-10.4l-7.1,13.7l0,0l0,0l-7.1-13.7l-5.4,10.4l4.6,8.9l2.4-4.7l-2-3.8l1.8-3.5l2.9,5.5l0.9,1.7l-0.9,1.7l-4.2,8.2l-0.9,1.7
						l-0.9-1.7l-6.4-12.3l-0.9-1.7l0.9-1.7l6.3-12.1l-6.3-12.1l-0.9-1.7l0.9-1.7l6.4-12.3l0.9-1.7l0.9,1.7l4.2,8.2l0.9,1.7l-0.9,1.7
						l-2.9,5.5l-1.8-3.5l2-3.8l-2.4-4.7l-4.6,8.9l5.4,10.4v0l7.1-13.7l0,0l0,0l7.1,13.7v0l5.4-10.4l-4.6-8.9l-2.4,4.7l2,3.8
						l-1.8,3.5l-2.9-5.5l-0.9-1.7l0.9-1.7l4.2-8.2l0.9-1.7l0.9,1.7l6.4,12.3l0.9,1.7L585,393l-6.3,12.1l6.3,12.1l0.9,1.7l-0.9,1.7
						l-6.4,12.3l-0.9,1.7l-0.9-1.7l-4.2-8.2l-0.9-1.7l0.9-1.7l2.9-5.5L577.3,419.4z M569.9,415.3l5.3-10.2l-5.3-10.2l-5.3,10.2
						L569.9,415.3z"/>
					<path id="path612" class="st46" d="M577.3,347.5l-2,3.8l2.4,4.7l4.6-8.9l-5.4-10.4l-7.1,13.7v0v0l-7.1-13.7l-5.4,10.4l4.6,8.9
						l2.4-4.7l-2-3.8l1.8-3.5l2.9,5.5l0.9,1.7l-0.9,1.7l-4.2,8.2l-0.9,1.7l-0.9-1.7l-6.4-12.3l-0.9-1.7l0.9-1.7l6.3-12.1l-6.3-12.1
						l-0.9-1.7l0.9-1.7l6.4-12.3l0.9-1.7l0.9,1.7l4.2,8.2l0.9,1.7l-0.9,1.7l-2.9,5.5l-1.8-3.5l2-3.8l-2.4-4.7l-4.6,8.9l5.4,10.4l0,0
						l7.1-13.7l0,0l0,0l7.1,13.7l0,0l5.4-10.4l-4.6-8.9l-2.4,4.7l2,3.8l-1.8,3.5l-2.9-5.5l-0.9-1.7l0.9-1.7l4.2-8.2l0.9-1.7l0.9,1.7
						l6.4,12.3l0.9,1.7l-0.9,1.7l-6.3,12.1l6.3,12.1l0.9,1.7l-0.9,1.7l-6.4,12.3l-0.9,1.7l-0.9-1.7l-4.2-8.2l-0.9-1.7l0.9-1.7
						l2.9-5.5L577.3,347.5z M569.9,343.4l5.3-10.2l-5.3-10.2l-5.3,10.2L569.9,343.4z"/>
					<path id="path614" class="st46" d="M577.3,280.9l-2,3.8l2.4,4.7l4.6-8.9l-5.4-10.4l-7.1,13.7l0,0l0,0l-7.1-13.7l-5.4,10.4
						l4.6,8.9l2.4-4.7l-2-3.8l1.8-3.5l2.9,5.5l0.9,1.7l-0.9,1.7l-4.2,8.2l-0.9,1.7l-0.9-1.7l-6.4-12.3l-0.9-1.7l0.9-1.7l6.3-12.1
						l-6.3-12.1l-0.9-1.7l0.9-1.7l6.4-12.3l0.9-1.7l0.9,1.7l4.2,8.2l0.9,1.7l-0.9,1.7l-2.9,5.5l-1.8-3.5l2-3.8l-2.4-4.7l-4.6,8.9
						l5.4,10.4l0,0l7.1-13.7l0,0l0,0l7.1,13.7l0,0l5.4-10.4l-4.6-8.9l-2.4,4.7l2,3.8l-1.8,3.5l-2.9-5.5l-0.9-1.7l0.9-1.7l4.2-8.2
						l0.9-1.7l0.9,1.7L585,251l0.9,1.7l-0.9,1.7l-6.3,12.1l6.3,12.1l0.9,1.7l-0.9,1.7l-6.4,12.3l-0.9,1.7l-0.9-1.7l-4.2-8.2
						l-0.9-1.7l0.9-1.7l2.9-5.5L577.3,280.9z M569.9,276.9l5.3-10.2l-5.3-10.2l-5.3,10.2L569.9,276.9z"/>
					<path id="path616" class="st46" d="M545.6,217.2l1.6,4l5.1,1.3l-3.7-9.3l-11.4-2.8l5.7,14.3l0,0l0,0l-15-3.7l4.3,10.9l9.7,2.4
						l-2-4.9l-4.2-1l-1.4-3.6l6.1,1.5l1.9,0.5l0.7,1.8l3.4,8.6l0.7,1.8l-1.9-0.5l-13.5-3.3l-1.9-0.5l-0.7-1.8l-5-12.7l-13.3-3.3
						l-1.9-0.5l-0.7-1.8l-5.1-12.9l-0.7-1.8l1.9,0.5l8.9,2.2l1.9,0.5l0.7,1.8l2.3,5.8l-3.8-0.9l-1.6-4l-5.1-1.3l3.7,9.3l11.4,2.8
						l0,0l-5.7-14.3h0l0,0l15,3.7l0,0l-4.3-10.9l-9.7-2.4l2,4.9l4.2,1l1.4,3.6l-6.1-1.5l-1.9-0.5l-0.7-1.8l-3.4-8.6l-0.7-1.8
						l1.9,0.5l13.5,3.3l1.9,0.5l0.7,1.8l5,12.7l13.3,3.3l1.9,0.5l0.7,1.8l5.1,12.9l0.7,1.8l-1.9-0.5l-8.9-2.2l-1.9-0.5l-0.7-1.8
						l-2.3-5.8L545.6,217.2z M537.7,220.1l-4.2-10.7l-11.1-2.7l4.2,10.7L537.7,220.1z"/>
					<path id="path618" class="st46" d="M472.3,172.7L472.3,172.7 M495.2,173.4l1.6,4l5.1,1.3l-3.7-9.3l-11.4-2.8l5.7,14.3l0,0l0,0
						l-15-3.7l4.3,10.9l9.7,2.4l-2-4.9l-4.2-1l-1.4-3.6l6.1,1.5l1.9,0.5l0.7,1.8l3.4,8.6l0.7,1.8l-1.9-0.5l-13.5-3.3l-1.9-0.5
						l-0.7-1.8l-5-12.7l-13.3-3.3l-1.9-0.5l-0.7-1.8l-5.1-12.9l-0.7-1.8l1.9,0.5l8.9,2.2l1.9,0.5l0.7,1.8l2.3,5.8l-3.8-0.9l-1.6-4
						l-5.1-1.3l3.7,9.3l11.4,2.8h0l-5.7-14.3l0,0l0,0l15,3.7l0,0l-4.3-10.9l-9.7-2.4l2,4.9l4.2,1l1.4,3.6l-6.1-1.5l-1.9-0.5
						l-0.7-1.8l-3.4-8.6l-0.7-1.8l1.9,0.5l13.5,3.3l1.9,0.5l0.7,1.8l5,12.7l13.3,3.3l1.9,0.5l0.7,1.8l5.1,12.9l0.7,1.8l-1.9-0.5
						l-8.9-2.2l-1.9-0.5l-0.7-1.8l-2.3-5.8L495.2,173.4z M487.3,176.3l-4.2-10.7l-11.1-2.7l4.2,10.7L487.3,176.3z"/>
					<path id="path620" class="st46" d="M445.7,129.8l1.6,4l5.1,1.3l-3.7-9.3l-11.4-2.8l5.7,14.3l0,0l0,0l-15-3.7l4.3,10.9l9.7,2.4
						l-2-4.9l-4.2-1l-1.4-3.6l6.1,1.5l1.9,0.5l0.7,1.8l3.4,8.6l0.7,1.8l-1.9-0.5l-13.5-3.3l-1.9-0.5l-0.7-1.8l-5-12.7l-13.3-3.2
						l-1.9-0.5l-0.7-1.8l-5.1-12.9l-0.7-1.8l1.9,0.5l8.9,2.2l1.9,0.5l0.7,1.8l2.3,5.8l-3.8-0.9l-1.6-4l-5.1-1.3l3.7,9.3l11.4,2.8
						l0,0l-5.7-14.3l0,0l0,0l15,3.7l0,0l-4.3-10.9l-9.7-2.4l2,4.9l4.2,1l1.4,3.6l-6.1-1.5l-1.9-0.5L417,111l-3.4-8.6l-0.7-1.8
						l1.9,0.5l13.5,3.3l1.9,0.5l0.7,1.8l5,12.7l13.3,3.2l1.9,0.5l0.7,1.8l5.1,12.9l0.7,1.8l-1.9-0.5l-8.9-2.2l-1.9-0.5l-0.7-1.8
						l-2.3-5.8L445.7,129.8z M437.8,132.7l-4.2-10.7l-11.1-2.7l4.2,10.7L437.8,132.7z"/>
					<g id="g622">
						<path id="path624" class="st46" d="M200.6,85.5l-1.6,4l-5.1,1.3l3.7-9.3l11.4-2.8L203.3,93l0,0l0,0l13-3.2
							c0.2-1.2,0.4-2.3,0.6-3.4l-8.4,2l4.2-10.7l6.8-1.7c0.4-1.2,0.8-2.4,1.3-3.6l-6.7,1.6l0,0l4.3-10.9l7.6-1.9
							c0.7-1.3,1.5-2.6,2.4-3.9L218.1,60l-1.9,0.5l-0.7,1.8l-5,12.7l-13.3,3.2l-1.9,0.5l-0.7,1.8l-5.1,12.9l-0.7,1.8l1.9-0.5
							l8.9-2.2l1.9-0.5l0.7-1.8l2.3-5.8L200.6,85.5z M215.6,95.9l-1.7,4.3l-9.7,2.4l2-4.9l4.2-1l1.4-3.6l-6.1,1.5l-1.9,0.5l-0.7,1.8
							l-3.4,8.6l-0.7,1.8l1.9-0.5l13.5-3.3l1-0.3c0-0.3,0-0.7,0-1C215.4,100,215.5,97.9,215.6,95.9L215.6,95.9z M223.5,66.4
							l-1.4,0.3l-1.4,3.6l1.2-0.3C222.4,68.9,222.9,67.6,223.5,66.4"/>
						<path id="path626" class="st46" d="M394.6,85.5l1.6,4l5.1,1.3l-3.7-9.3l-11.4-2.8L392,93l0,0l0,0l-13-3.2
							c-0.2-1.2-0.4-2.3-0.6-3.4l8.4,2.1l-4.2-10.7l-6.8-1.7c-0.4-1.2-0.8-2.4-1.3-3.6l6.7,1.6l0,0l-4.3-10.9l-7.6-1.9
							c-0.7-1.3-1.5-2.6-2.4-3.9l10.5,2.6l1.9,0.5l0.7,1.8l5,12.7l13.3,3.2l1.9,0.5l0.7,1.8l5.1,12.9l0.7,1.8l-1.9-0.5l-8.9-2.2
							l-1.9-0.5l-0.7-1.8l-2.3-5.8L394.6,85.5z M379.7,95.9l1.7,4.3l9.7,2.4l-2-4.9l-4.2-1l-1.4-3.6l6.1,1.5l1.9,0.5l0.7,1.8
							l3.4,8.6l0.7,1.8l-1.9-0.5l-13.5-3.3l-1-0.3c0-0.3,0-0.7,0-1C379.9,100,379.8,97.9,379.7,95.9L379.7,95.9z M371.8,66.4
							l1.4,0.3l1.4,3.6l-1.2-0.3C372.9,68.9,372.4,67.6,371.8,66.4"/>
					</g>
					<g id="g628">
						<path id="path630" class="st3" d="M373.6,102.1c0-42-34-76-76-76c-42,0-76,34-76,76s34,76,76,76S373.6,144,373.6,102.1"/>
						<path id="path632" class="st48" d="M370.1,104.4c0-34.4-21.4-63.8-51.6-76c-4-1.6-21-3.9-36.1,1.3
							c-21.5,7.4-43.7,22.2-44.5,27.9c-0.5,3.8,0.5,9.6,0.5,13.6c-0.2,53.2,29.6,88.5,81.1,86.8c14.2-0.5,30.3-7.9,42-14.2
							C367.7,132.3,370.1,118.5,370.1,104.4"/>
						<path id="path634" class="st49" d="M336.5,168.5c0,0,11.3-99.3-110.5-94.7c0,0,29.9-53.7,70.3-48.2
							c24.2,3.3,56.2,23.5,64.2,34.6c8,11.1,13,32.8,13.1,45.8C373.9,136,336.5,168.5,336.5,168.5"/>
						<path id="path636" class="st50" d="M356.6,59.6l-8-0.6c8.8,10.4,14.5,23.5,15.6,37.9l5.3-5.8
							C367.7,79.5,363.2,68.8,356.6,59.6z M297.6,29.4c-5,0-9.9,0.5-14.6,1.5l-3.8,7c5.8-1.7,12-2.6,18.4-2.6
							c6.5,0,12.8,0.9,18.8,2.7l-3.8-7.1C307.8,29.9,302.8,29.4,297.6,29.4L297.6,29.4z M225.7,91.6l5.3,5.8
							c1-14.5,6.6-27.7,15.4-38.1l-8,0.6C231.9,69.1,227.4,79.9,225.7,91.6z M270.7,169.6l7-3.8c-16-5-29.4-15.9-37.7-30.2l-2.1,7.8
							C245.9,155,257.3,164.2,270.7,169.6z M357.1,143.8l-2.1-7.7c-8.3,14-21.6,24.7-37.4,29.6l7,3.8
							C337.7,164.3,349,155.3,357.1,143.8L357.1,143.8z M328.3,57.4L311,83.9l6.8,21.1l32.1,7.6l11.7-12.9
							c-0.6-15.8-6.9-30.1-16.9-40.9L328.3,57.4z M269.5,56.1l17.1,26.2h22.2l17.2-26.3l-7.9-14.7c-6.5-2.2-13.4-3.4-20.5-3.4
							c-7,0-13.8,1.1-20.2,3.3L269.5,56.1z M245,112.8l32.2-7.3l7.1-21.8l-17-26L250.2,59c-9.9,11-16.2,25.4-16.6,41.2L245,112.8z
							 M296.3,155.6v-34.7l-17.8-12.9l-33.2,7.5l-4.4,16.5c8.2,15.6,22.7,27.4,40,32.1L296.3,155.6z M349.4,115.1l-32.1-7.5
							L299,120.9v34.7l15.4,8.4c17.1-4.6,31.4-16.2,39.7-31.5L349.4,115.1z M373.9,118.2L373.9,118.2L373.9,118.2l0,0.2
							c-0.1,0.3-0.1,0.6-0.2,0.9l-0.3,1.3l0,0.1l0,0.1l0,0c-2.7,11-7.7,21-14.5,29.6c-7.5,9.5-17.2,17.3-28.4,22.5
							c-10,4.7-21.1,7.2-32.8,7.2s-22.8-2.6-32.8-7.2c-11.3-5.3-21.2-13.2-28.7-22.9c-6.6-8.5-11.5-18.4-14.1-29.2h0l-0.2-0.7
							c-1.4-5.8-2.1-11.8-2.1-17.9c0-5.3,0.5-10.4,1.5-15.4c1.9-9.5,5.5-18.3,10.5-26.2c5.8-9.1,13.4-17,22.4-23l0,0l0.1-0.1
							c9.4-6.3,20.3-10.7,31.9-12.4c3.7-0.6,7.6-0.8,11.5-0.8c4,0,7.9,0.3,11.8,0.9c10.8,1.6,20.9,5.5,29.7,11.1l0,0l0,0
							c0.6,0.4,1.2,0.8,1.7,1.1l0.3,0.2l0.2,0.1v0c8.8,6,16.3,13.7,22,22.6c5,7.8,8.7,16.6,10.6,26c1.1,5.1,1.6,10.4,1.6,15.9
							C375.6,107.6,375,113,373.9,118.2"/>
						<g id="g638">
							<path id="path640" class="st51" d="M351.7,132.6l-3.8-16.4l-18.2-3.7l15.9,5.8L351.7,132.6z"/>
							<path id="path642" class="st3" d="M293.9,139.8v-17.3l-11.6-8.9l8.8,9.9L293.9,139.8z"/>
							<path id="path644" class="st3" d="M276.4,102.1l4.6-17.1c0.2-0.6,0.1-1.3-0.3-1.8L271.5,68l7.7,17L276.4,102.1z"/>
							<path id="path646" class="st3" d="M309.1,164l-11.4-5.9L286,164l11.8-3L309.1,164z"/>
							<path id="path648" class="st3" d="M357.6,138.1l-5.9-23.4l5.4-6.7l-3.9,7.1L357.6,138.1z"/>
							<path id="path650" class="st3" d="M348.6,56.4l-21.1-0.8l-7.1-13.8l7.9,12.3L348.6,56.4z"/>
							<path id="path652" class="st3" d="M264.6,55.9c-0.5,0-23,1.8-23,1.8l2.5-4.2l-0.2,3L264.6,55.9z"/>
							<path id="path654" class="st3" d="M237.8,128.6L243,115l-10.5-11.2l8.4,11.4L237.8,128.6z"/>
						</g>
					</g>
					<path id="path656" class="st31" d="M133.5,194.2l29.6-25.8l7.5,8.6l-18.1,15.7c-0.1,0.1-0.5,0.3-0.2,0.6c0.2,0.2,0.7,0.1,1,0
						l16.9-5.7c5.3-1.8,9.4-1.8,15.3,5c2.1,2.4,4.2,5.5,3.8,9c-0.3,2.9-2.6,6.2-4.9,8.2l-24.7,21.5l-7.2-8.2l16.4-14.3
						c1-0.9,2.6-2.1,2.9-3.7c0.2-1.1-0.4-1.9-0.8-2.4c-0.7-0.8-2.1-1.9-4.6-1.1l-23.9,7.5c-4.7,1.5-8.2-2.1-9.3-3.5
						C130.4,202.4,129.1,198,133.5,194.2L133.5,194.2z M185.9,172.1c-4.4-5-8-10.9-6-16.3c1.2-3.4,5.2-7.3,12.3-13.5
						c7.1-6.2,11.5-9.6,15-10.4c5.6-1.2,10.9,3.2,15.3,8.2l6.1,7c2.2,2.5,7.4,8.7,5.8,15.4c-1.3,5.4-7.1,10.5-11.8,14.6
						c-4.7,4.1-10.6,9.2-16.1,9.7c-6.9,0.7-12.3-5.4-14.5-7.8L185.9,172.1z M199.8,151.1c-1.3,1.1-3,2.8-3.1,4.6
						c-0.1,1.3,0.7,2.8,3.1,5.6l5.7,6.5c1.1,1.3,2.6,2.9,4.6,2.9c1.9,0,3.7-1.3,4.8-2.3c1.1-1,2.7-2.6,2.9-4.4c0.2-2-1.2-3.7-2.3-5
						l-5.7-6.5c-2.4-2.8-3.8-3.8-5.1-3.9C203,148.5,201.1,149.9,199.8,151.1"/>
					<path id="path658" class="st31" d="M391.3,131.2l29.8,25.7l-7.5,8.6l-18.1-15.6c-0.1-0.1-0.4-0.4-0.6-0.2c-0.2,0.2,0,0.7,0.2,1
						l8.1,15.9c2.5,5,3.1,9-2.8,15.8c-2.1,2.4-4.8,5-8.4,5.1c-3,0.1-6.5-1.7-8.8-3.6l-24.8-21.4l7.1-8.3l16.4,14.2
						c1,0.9,2.4,2.3,4.1,2.3c1.1,0,1.8-0.7,2.2-1.1c0.7-0.8,1.6-2.4,0.5-4.7l-10.8-22.6c-2.1-4.5,1-8.4,2.1-9.7
						C382.7,129.3,386.9,127.4,391.3,131.2L391.3,131.2z M438.1,171.5l29.8,25.7l-7.5,8.6l-18.1-15.6c-0.1-0.1-0.4-0.4-0.6-0.2
						c-0.2,0.2,0,0.7,0.2,1l8.1,15.9c2.5,5,3.1,9.1-2.8,15.8c-2.1,2.4-4.8,5-8.4,5.1c-3,0.1-6.5-1.7-8.8-3.6l-24.8-21.4l7.1-8.3
						l16.4,14.2c1,0.9,2.4,2.3,4.1,2.3c1.1,0,1.8-0.7,2.2-1.1c0.7-0.8,1.6-2.4,0.5-4.7l-10.8-22.6c-2.1-4.5,1-8.4,2.1-9.7
						C429.5,169.7,433.7,167.8,438.1,171.5"/>
					<g id="g660">
						<path id="path662" class="st46" d="M472.4,482.1c21.6-18.7,36.1-43.2,41.9-71c6.1-28.9,2.4-60.4-10.6-91.1c0,0,0,0,0,0
							c-0.2-0.5-0.4-1-0.7-1.5c0,0,0,0,0,0c-0.6-1.5-1.3-3-2.1-4.7c-3.5-7.5-7.6-15-12.1-22.2c-3.6-5.8-7.6-11.6-11.9-17.3
							c-4.4-5.9-9.2-11.7-14.3-17.4c-2-2.3-3.9-4.3-5.8-6.3c-5.7-6-11.8-11.9-18.2-17.7c-0.1,0-0.1-0.1-0.2-0.1
							c-0.2-0.2-0.4-0.3-0.6-0.5c-0.2-0.2-0.5-0.4-0.7-0.6l-0.1-0.1c-0.5-0.5-1-0.9-1.6-1.4c-0.1,0-0.1-0.1-0.2-0.1
							c-0.1-0.1-0.1-0.1-0.2-0.2c0,0-0.1-0.1-0.1-0.1l-0.1-0.1l0,0l0,0c0,0-0.1-0.1-0.1-0.1c0,0,0,0,0,0c-0.1,0-0.1-0.1-0.1-0.1
							c0,0,0,0,0,0c0,0,0,0,0,0c-0.7-0.6-1.5-1.3-2.5-2.1c0,0-0.1-0.1-0.1-0.1c-0.1,0-0.1-0.1-0.2-0.1c-1.3-1.1-2.7-2.1-4-3.2
							c1.5,1.8,2.9,3.6,4.3,5.5c0.3,0.3,0.5,0.7,0.8,1c0.3,0.4,0.5,0.7,0.8,1.1c15.9,21.1,25.3,45,27.3,69
							c1.8,23.1-3.2,45.5-14.7,64.8c-10.4,17.4-25.8,31.8-44.5,41.5c-20.3,10.5-43.8,15.6-70,15.1c-0.1,0-0.1,0-0.2,0l-0.5,0
							c-0.3,0-0.7,0-1,0c-0.3,0-0.5,0-0.8-0.1c0,0,0,0-0.1,0c-0.3,0-0.5-0.1-0.8-0.2c-1.2,0-2.3-0.1-3.4-0.2c0,0-0.1,0-0.1,0
							c-0.5,0-0.9-0.1-1.4-0.1l-0.1,0c-0.1,0-0.2,0-0.3,0c-10.4-0.7-21.2-2.4-32.2-4.9c0,0-0.1,0-0.1,0c-0.5-0.1-1.5-0.2-2.4-0.3
							c-1.2-0.1-2.5-0.2-3.8-0.5c0,0-0.1,0-0.1,0c-13.3-3.3-25.9-3.5-36.7-0.5c-9.6,2.6-17.5,7.7-22.8,14.5
							c-4.8,6.1-7.3,13.4-7.3,21c0,8,2.9,16,8.3,23.1c4.9,6.5,11.7,12.1,20.2,16.9c3.3,1.4,6.6,2.9,9.7,4.3l1.2,0.5
							c0.1,0,0.1,0.1,0.2,0.1l1,0.4c0.2,0.1,0.5,0.1,0.7,0.2c0.6,0.2,1.3,0.6,2.5,1.2l0.3,0.1c0.3,0.1,0.6,0.3,0.9,0.4
							c0.1,0,0.2,0.1,0.4,0.1c21.9,8.8,43.6,15,64.6,18.3c19.8,3.1,39.1,3.8,57.3,1.9C419,514.5,449.3,502,472.4,482.1"/>
						<g id="g664">
							<path id="path666" class="st2" d="M222.8,494.6c-0.6,0.5-1.2,1.1-1.7,1.9c-4.2,5.9-0.8,14.5,6.9,14.8
								c1.9,0.1,3.8,0.1,5.6,0.1c0.2,0,0.5,0,0.7,0c0.1,0.8,0.1,1.5,0.2,2.3c0.2,2.3,0.5,6.1,1.4,8.3c1.1,2.5,3.3,4.2,5.8,4.8
								c0.6,0.1,1.1,0.2,1.7,0.2h1.1c0.6,0,1.1-0.1,1.7-0.2c2.8-0.7,5.2-2.8,6-5.6c0.5-1.8,0.4-5.5,0.4-7.4c0-0.8,0-1.6,0-2.3
								c0.6,0,1.1-0.1,1.7-0.1c0.8,0,1.7,0.1,2.5,0.1c3.4,0,6.7-0.8,8.9-3.6c2.2-2.8,2.2-6.3,0.9-9.5c-0.5-1.2-1.4-2.2-2.4-3
								c0.6-0.3,1.2-0.8,1.7-1.3c1.3-1.4,2.2-3.1,2.6-5c6.7-0.5,9.3-7.5,6.3-12.2c0.3-1.2,0.3-2.4,0-3.6c-0.1-0.4-0.2-0.8-0.4-1.1
								c0,0,0.1,0,0.1,0c1.9-1.2,3.8-2.6,5.4-4.2c2.7-2.7,3.9-4.5,5.6-7.4c1.4-0.9,4-1.8,5.4-2.6c4-2.3,7.9-4.7,11.6-7.3
								c0,1.9,0.8,3.7,2.1,5.2c0.3,0.3,0.5,0.6,0.8,0.8c0.6,0.5,1.2,0.9,1.8,1.2c0.1,1.9,0.6,3.7,2.3,5.5c1.3,1.4,3,2.2,4.9,2.2
								l1.6,0.1c2.8,0.1,5.3-1.3,6.6-3.9c0.6-1.1,0.9-2.2,1-3.3c1.9-0.2,3.7-0.8,5.4-2.5c1.7-1.6,2.4-3.6,2.2-5.9
								c-0.2-1.4-0.6-2.7-1.4-3.9c0.3-1.2,0.3-2.3,0-3.5c-0.4-1.5-1.2-2.9-2.3-4c-1-0.9-1.9-1.4-2.8-1.7c0-0.4,0.1-0.8,0.1-1.2
								c2.3,0.1,4.6-0.2,6.7-1.2c5.5-2.3,9.3-10,10.6-15.6c0.8-3.5,0-17.5-1.5-20.6c-0.5-1-1.2-1.8-2-2.5c0.8-1.5,1.4-3.1,1.7-4.8
								c0.4-2.1,0.4-4.1,0.2-6.3c-0.5-4.6-0.6-5.7,1.3-10.3c4.1-10.3,13.6-22.3,11.4-33.9c-0.2-1.3-0.8-2.4-1.5-3.3
								c0.1-0.6,0.1-1.2,0.1-1.7c0-0.4-0.1-0.7-0.2-1.1c14.1-12.9,28.6-32.7,32.3-51.5c0.8-4.2,0.6-8.5-1-12.6
								c-5.5-14.4-25.2-19.8-38.8-22.3c-20-3.7-42.1-4.1-62.5-3.6c-21.7,0.4-43.5,2-65.1,4.3c-33.3,3.6-56.3,1.5-76.6,33.1
								c-5.4,8.4-11.2,16.8-17,25c-7.4,10.5-15.1,20.7-23.2,30.7c-4,4.9-8,9.7-12.3,14.3c-4.6,5-9.9,10-13.5,15.9
								c-9.3,15.4-6.8,43.1,14.2,47.3c8.4,1.7,17.5,1.4,26.1,2.1c1.9,0.2,3.8,0,5.7-0.1c0.3,0,0.9,0,1.4,0c1.1,1.9,2.2,3.7,4.2,5
								c2.5,1.6,5.4,1.5,8.2,2c2.4,0.4,10.8,3.7,13.8,5.5c0.2,1.7,0,5.6,0,6.6c0,6.1,1.1,11.5,4.8,16.5c9.2,12.4,29.5,17,44.1,18.4
								c2.2,0.2,5.4,0.4,7.2,1.7c0.5,0.3,1,1.1,1.3,1.5c1.1,1.5,2.1,3,3.5,4.3c0.6,0.5,1.2,1,1.8,1.5c4.2,2.9,10.4,3.1,15.4,3.2
								c0,0,0,0,0,0C222.1,486,220.6,490.6,222.8,494.6"/>
							<path id="path668" class="st0" d="M270.8,381.6C270.5,381.9,271.1,381.3,270.8,381.6z M217.6,255.7
								c55.4-6,166.8-11.9,159.6,25.7c-3.5,18.2-18.5,37.1-30.9,48.4c-10.2,9.2-24.9,24.1-36.5,31.3c-2.5,1.6-1.3,6.2-1.2,9.2
								c0.1,3.6,0.4,7.2,0.5,10.8c5-2.3,13.3-12.1,16.9-16.6c2-2.5,13.7-18.2,12.1-20.6l-1.4,1.2c-1.1-1,1.1-6.9,3.2-5.9l0.2,2.6
								c1.2-0.1,3.1-6,4.9-5.8c0.2,2-12.4,25.2-14.5,28.7c-2.6,4.4-5.4,9.1-8.5,13.2c-1.1,1.4-9.5,11.6-9.5,11.9
								c6.5,0.5,10.4-1,13-7.1c1.7-4,5.3-9,7.4-13.2c1.4-2.9,13.3-27.3,13.7-27.7c1.5,8.3-7.8,21.8-11,30
								c-4.2,10.6-0.8,12.4-1.8,17.9c-1,5.2-7.9,10.7-5.1,14.5l6-2.9c0.7,1.5,1.3,14.3,0.9,16c-0.7,3.1-3.4,9.3-6.4,10.6
								c-5.4,2.3-11-3.3-11,5.4c0,2-0.6,6.8-0.2,8.2c0.8,3.2,4.9,0.9,5.4,2.7c-0.4,1.6-3.8,0.3-5.1,0.9c-1,0.7-1,2.7-0.1,3.5
								c1.2,1,6.1-0.4,6.4,2.1c-1.7,1.6-4.6-0.6-6.7,1c-2,1.5-0.1,4.8-1.1,6.6l-1.6-0.1c-0.9-1,0-3.5-0.4-5.4
								c-0.6-3.2-3.3-0.9-4.4-1.8c-1.7-2.1,2.8-1.8,3.6-2.3c1.5-1,0.7-3.6,0.8-5.2c0-4.2,0-8.3,0-12.5c-4.3,3.5-8.1,7.6-12.6,11.1
								c-4.9,3.7-9,6.4-14.4,9.4c-2,1.1-6.5,2.7-7.5,4.4c-1.9,3.2-2.3,4.1-5,6.8c-4.8,4.8-14.9,8-12.1,10.6c0.9,0.8,4.7-0.2,5.2,1.6
								c-1.9,1.6-3.5-0.2-5.5,0.8c-1.6,3.3,0.5,3.7,3.1,3.7c4.2,0,4.3,2.4,2,2.3c-1.9-0.1-4.7-0.9-5.7,1.3c-1.1,2.4,0.8,4.1-0.8,5.8
								c-2.6,0.3-1.5-5-1.5-7c0-3,0-6,0-9c-1.4,0-3.7,1.1-5,1.5c-4.2,1.3-8.3-0.3-8.8,4.2c-0.1,0.9,0,5.5,0.3,6.2
								c0.6,0.2,2.4-0.3,4.2,0.4c1.1,0.5,1.9,1,3,1.8c1.9,1.3,5.2,2.6,3,5.4l-8.6,0c-0.3-0.4-0.1-1.9-0.1-2c0.2-0.4,5.4-0.5,6.1-0.6
								l-7.6-3.9c0,1.5,0.1,32.5-0.1,33.2c-0.1,0.4-0.5,0.7-0.9,0.8h-1.1c-0.4-0.1-0.8-0.4-1-0.7c-1-2.2-2.6-28.8-3.4-34.3
								c-2.3,3.1-5.4,3.5-6.6,5.2c1.5,0.2,3.2,0,4.8,0c2.1,0.1,2,1.9,0.8,2.2c-1.3,0.4-7.7,0.3-8.5-0.5c-2-2,1.7-4,3-5
								c2.4-1.7,3.7-2.3,6.5-2.6l-0.5-7.3c-2.8-2.3-19.1,0.4-24.2-3.1c-2.6-1.8-3.6-5.2-6.5-7.2c-3.2-2.2-6.9-2.6-10.6-2.9
								c-12.2-1.1-31.3-5.1-39-15.5c-6.2-8.4-1.4-17.4-4.4-22.9c-1.5-2.8-15.3-7.9-18.8-8.5c-6.9-1.2-4.9,0.4-8.3-5.1
								c-1.9-3-8.2-1.5-11.7-1.8c-7.6-0.6-18.2-0.6-25.3-2c-15.8-3.1-16.2-25.5-9.5-36.6c3-5,8.5-10.3,12.6-14.7
								c4.4-4.8,8.5-9.6,12.6-14.7c8.1-10,16-20.5,23.5-31c3.3-4.7,11.7-16.8,17.2-25.2C164.7,256.8,185.6,259.2,217.6,255.7
								L217.6,255.7z M149.9,302c-3.9,8.3-9.8,16.7-14.2,24.7c-8.8,16.2-17.3,32.2-26.5,48.1c-2.3,4-4.5,7.9-6.8,11.9
								c-1.4,2.5-7,10.6-3.8,12.8c3.8,2.5,29.7,1.6,35.7,1.5c23.1-0.5,45.8-2.1,68.6-6c57.6-10,107.7-33.5,146.8-77.2
								c8.5-9.5,18.6-20.7,23.3-32.6l1-2.8c12.1-35.7-103.4-25.3-157.7-18.4C167.3,270.4,178.7,266.4,149.9,302L149.9,302z
								 M367.1,289.8c-0.5,0.1-2.7,1.7-3.2,2.1c-1.5,1.3-1.1,2.4-0.7,4.1c0.5-0.2,2.4-1.8,2.9-2.2
								C367.7,292.1,367.1,291.6,367.1,289.8L367.1,289.8z M333.1,345.5c-0.6,0.4-2.7,2.8-3.1,3.4c-1.5,2.2-1.2,2.9-0.9,5.4
								c1.2-1.1,2.3-2,3.3-3.4C333.4,349.5,334,347,333.1,345.5z M359.9,294.5c-0.7,0.5-1.2,1.2-2,1.7c-4.1,2.8-4.2,3.5-3.3,7.1
								c0.7-0.2,3.4-2.5,4-3.2C360.4,298.1,359.9,296.9,359.9,294.5z M325.7,354.1c-0.9,0.6-3,3.1-3.7,4.1c-1,1.4-2,4.7-0.8,6.3
								c0.5-0.3,3.1-3.3,3.6-4C325.9,358.9,326.7,355.9,325.7,354.1L325.7,354.1z M317.1,364.5c-0.9,0.7-3.6,3.8-4.3,4.9
								c-1.9,3-1.4,3.9-1.2,7.3c0.9-0.2,3.8-3.9,4.5-4.8C317.4,370.1,318.4,366.4,317.1,364.5z M247.1,495.8c-2,3.5,8.1,4.1,8.3,5.6
								l-7.7,0.6c-1.4,3,4.7,2,6.7,2c2.3,0,7.4,0.9,5.7-3.1C259.8,500,248,495.4,247.1,495.8z M231.1,501.7c0.2-1.9,11.4-2.7,7.6-6
								c-1-0.2-6.7,2.5-8.1,3c-1.1,0.4-3.1,0.9-3.7,1.9c-0.8,1.2-0.7,3.4,1.3,3.5c1.5,0,10.2,0.3,11-0.3
								C242.4,501,231.4,501.9,231.1,501.7z M350.7,302c-0.7,0.2-5.9,3.9-6.8,4.6c-3.8,2.8-2.2,4.1-1.7,8.4
								C345.6,313,353.6,306.8,350.7,302z M338.6,311c-0.2,0-8.2,6.1-9.3,6.9c-2.3,1.6-3.9,1.4-3.7,4.3c0.2,2.5,0.5,5.3,0.6,7.7
								C333.2,327.6,340.7,318.8,338.6,311z M226.8,348.4c0.7-2.9,4.3-2.8,7-3.4c1.3-0.3,3-1,4.1,0.1c1,0.9,1.3,2.6,0.6,3.8
								C237,351.4,224.7,356.8,226.8,348.4z M230,355.6c5.5-0.8,8.5-1.6,13.2-4.8c5-3.4,2.3-10.4-2.7-9.8
								c-3.3,0.4-11.6,1.9-13.8,4.2C223.5,348.7,223.7,356.4,230,355.6L230,355.6z M306,348.2c0.5,0,10.5-8.2,11.4-9.2
								c2.1-2.2,3-3.3,3.9-6.3c0.4-1.2,1-9-0.3-8.6c-0.1,0-10.1,7.9-11.7,8.9c-3.3,2.1-4.5,1.7-4.1,5.9
								C305.3,339.8,305.7,348.2,306,348.2L306,348.2z M195.5,356.1c1.1-3.1,5.4-3.1,8.3-3.7c1.6-0.3,3.4-1.1,4.7,0.2
								c1.2,1.1,1.5,3.2,0.6,4.6c-1.4,2.4-10.6,6-12.9,3.9C195.2,360.3,195.1,357.3,195.5,356.1L195.5,356.1z M198.7,364.9
								c6.4-0.5,10.1-1.7,15.5-5.3c5.9-4,3.8-11.7-2.1-11.6c-2.3,0-14.9,2.8-16.6,4.2C192.6,354.5,190.9,365.6,198.7,364.9z
								 M161.7,365.1c0.3-4.8,4.8-4.4,8.5-5.2c1.7-0.3,4.1-1.3,5.7-0.4c1.5,0.9,2.3,3.2,1.7,4.8c-0.9,2.4-6,4.7-8.4,5.3
								C164.1,371,161.3,371.2,161.7,365.1L161.7,365.1z M165.8,373.9c5.9-0.3,12.5-2.8,17.3-6.2c6.6-4.7,3.9-13.4-3.1-13
								c-3.5,0.2-16,2.9-18.2,5.4C157.7,364.6,157.1,374.2,165.8,373.9L165.8,373.9z M304.4,301l8-6.1c-5.2,1.2-10.4,3.7-16,3.1
								c-3-0.3-5.2-0.4-8.2-1.5c-2-0.8-5.2-2.7-6.5-3.2c1.2,3.5,4.4,8.6,6.1,12.8c1.8,4.6,3.4,9.7,4.3,14.5c2,10.3,2.2,16,1.8,26
								c-0.1,2.8-0.7,6.1-0.7,8.8c3.7-0.9,7.1-1.8,8.2-5.9c0.9-3.5,0.6-9.6,0.1-13.2c-0.9-6.6-1.4-5.3,4-8.8
								c9.2-6,16.1-10.7,24.9-17.7c3.8-3,13.4-9.3,14.8-13.6c-2.2,0.9-9.9,6.5-12.4,8.2c-9.9,6.6-16.1,9.7-26.6,14.7
								c-3.4,1.6-6.4-0.4-5-3.4c0.9-1.9,4.3-3.3,6.1-4.3c7.5-4.2,48.3-26.8,51-31.7C344.7,286.5,319.1,300.4,304.4,301L304.4,301z
								 M268.4,366.9L268.4,366.9c-0.1-0.7-23.2,6-25.3,6.5c-28.5,7.3-54.3,11.3-83.8,13.9c-11.2,1-19.2,1.7-30.5,0.2
								c-5.5-0.7-8.8-1.3-7.5-8.1c0.7-3.7,3.2-8,4.8-11.6c3.3-7.4,18.4-41.5,17.2-47.2c-0.1-0.2-11,23.1-12.1,25.2
								c-6,11.6-13.5,25.5-18.5,37.5c-1.6,3.9-5,10.9,0.8,12.8c7.3,2.4,26.8,0.9,35,0.2c21.8-2,43-5,64.3-10.3
								C222.1,383.9,263.2,372,268.4,366.9L268.4,366.9z M84.8,382.8c1.3-11.3,19.5-32.2,27.1-41.5c5.1-6.3,10.4-12.4,15.7-18.7
								c3.8-4.5,15.3-20.4,6.1-3.9c-8.2,14.6-16.5,29.1-25.2,43.4c-1.5,2.4-18.9,30.8-19.8,31.7C85.4,397.3,84.6,384.6,84.8,382.8
								L84.8,382.8z M271,381.4c0.8-0.9,11.3-5.6,13.3-6.6c3.7-1.9,12.9-4,16.6-2.5c0.9,1.2,0.2,12.7,0.2,15.1
								c0,3.2-1.2,3.5-4.3,3.6c-2.3,0.1-4.8,0.6-7.1,1c-8.9,1.6-17.4,4.2-26.2,6c-9.8,2-19.2,2.6-29.2,3c-5.2,0.2-10.7,0.1-15.9,0.1
								c-1.3,0-6.9,0.3-7.5-0.5c-0.7-0.8,4.8-1.7,5.5-1.9c12.8-3.6,24.2-6.8,36.8-11.3c1.8-0.7,4.2-1.4,5.9-2.2
								c3.8-1.7,2.9-0.7,3.7,2.3c0.8,3.1,11.1,1.7,13.8,1.6c2.7-0.2,13-0.4,14.8-1.4c1.2-0.6,1.3-1.3,1.1-2.6
								c-0.8-5.5,0.9-5.7-6.4-4.9C281.5,380.7,275.4,381.4,271,381.4L271,381.4z M176.4,407.2c-1.1-0.9,16.9-2.9,17.9-3
								c7-0.5,12.7,0.4,19.6,0.6c13.5,0.4,26.8,0.7,40.3-0.7c12.7-1.4,22.4-4.7,34.5-7.2c6-1.2,21.6-3.5,27.8-3.4
								c4.3,0.1,4,2.6,4.4,6.1c0.9,6.9-1.3,4.4-15.2,5.2c-6.1,0.4-11.7,1.7-17.7,3.1c-12.9,3-22.6,4.9-36,5.7
								c-13.6,0.8-26.4,0.8-40-0.4C205.6,412.7,181.2,409.7,176.4,407.2L176.4,407.2z M175.6,419.4c-1.9-0.6-4.7-1.1-5.1-3.2
								c-0.2-1-0.4-7.7,0.2-8.1c0.8-0.6,4.7,1.2,5,3C175.8,411.6,175.7,418.6,175.6,419.4L175.6,419.4z M208.2,417.3
								c0.1,0.6-0.2,3.1-0.2,4c0,1,0.5,3.3-0.6,3.8c-2.2,0.8-5.2,0-5.8-2.6c-0.3-1.4-0.9-6.9,0.7-7.4
								C204.2,414.5,207.7,414.8,208.2,417.3L208.2,417.3z M267.3,420.7c0.4-2.1-0.9-5.1,0.5-6.6c1-1.1,5.6-2.1,5.3,0.5
								c-0.2,2,0.4,5.4-0.8,6.6C271.3,422.2,266.7,423.4,267.3,420.7L267.3,420.7z M241.8,423.3c0.7,3.7-2.8,3.4-5.5,3.2
								c-2.3-0.2-1-5.5-1.3-7.1c-0.6-3.2,3.5-3.6,5.1-2.8C242.4,417.5,241.5,421.5,241.8,423.3L241.8,423.3z M234.7,429
								c9.3-0.2,17.7-0.6,26.8-2.7c7.9-1.8,14.9-5.2,22.7-7c9.9-2.4,17.1-2,27.1-1.7c3.6,0.1,11.4-1.2,13.8,1
								c1.4,1.3,1.6,3.4,0.2,4.8c-1.6,1.6-4.3,1.2-6.3,0.9c-7.1-1-21.2-0.7-28.2,0.7c-7.3,1.4-15.4,4.8-23,6.7
								c-17.6,4.5-35.6,6.2-53.7,5.5c-17.1-0.6-33.4-2.7-48.8-10.4c-6.5-3.3-13.3-6.8-20.1-9.5c-4.4-1.7-7-2.3-11.4-3.6
								c-7.4-2.2-2.1-3.8,2.4-3.9c14.3-0.2,11.2-1.2,23.4,5.5c7.1,3.9,13.5,6.3,21.3,8.4C198.5,428.4,216.7,429.4,234.7,429z
								 M170.9,437.9l0-6.3c5.9,1.8,5.4,2.4,5.4,8.4c0,3.4,0.1,3.5-3.3,2.4C170,441.6,170.9,440.1,170.9,437.9L170.9,437.9z
								 M266.6,441.6c0.5,2.7-3.8,3.5-5.6,3.4c-1.7-0.1-1.2-2-1.2-3.4c0-1.4-0.3-3.2-0.2-4.4c0.2-2.8,4.1-3,6.2-2.8
								C267.6,434.6,265.8,437.2,266.6,441.6L266.6,441.6z M204.5,445.8c0.6,3.2-3.2,3.4-5.1,1.8c-2.2-1.8-1.9-4.8-1.7-7.4
								c0.2-3.3,3.6-2.6,5.9-1.5C205.1,439.5,204.1,443.8,204.5,445.8L204.5,445.8z M233.9,446.4c0.4,2.4-5.5,2.3-6.2,2
								c-1.4-0.5-0.7-6.4-0.7-7.8c0.1-3,5.7-2,6.1-1.5C234,439.9,233.5,444.6,233.9,446.4z M311.8,428.2c-3,7-22.6,18.4-29.7,21.6
								c-28.5,12.7-58.1,13.6-88.6,9.1c-12.1-1.8-29.7-3.7-33.9-17.5c4.7,0.6,12.8,3.8,18.1,5c31,7.1,71.7,5.9,101.6-4.8
								c8.4-3,15.8-6.6,23.3-11.4C306.7,427.6,306.8,427.9,311.8,428.2L311.8,428.2z M259.5,466.9l-1.3-1.8
								c-1.1,0.3-4.4,5.5-11.4,6.8c-5.3,1-12.2,0.6-17.6,0.2c-4.6-0.3-11.5-0.1-14.4-4c-2.9-3.8-0.4-2.5,3.3-2.4c3.2,0.1,5.8,0,9,0
								c11.1-0.2,21.9-1.9,32.7-4.5c0,0,16.8-4.9,11.3-1.6C269.2,460.7,260.6,466.9,259.5,466.9"/>
						</g>
						<path id="path670" class="st46" d="M447.7,331.7c2.5-28.9-6.6-58.3-28.1-82.8c-29.6-33.8-76.2-50.7-123.8-49.3
							c-10.6,0.6-21.2,1.8-31.6,3.7c0,0,0,0,0,0c-38.4,6.9-75.4,22.8-106.4,47.5c-4.1,3.2-8,6.6-11.7,10c10.6-5.3,21.7-9.9,33-13.6
							c58.9-19.2,138.4-16.8,193.8,8.4C395.9,266.1,434.8,311,447.7,331.7"/>
						<path id="path672" class="st52" d="M492.1,501.3c0.9-1.2,1.8-2.4,2.7-3.7c0.4-0.6,0.9-1.2,1.3-1.8
							c11.7-16.5,20.3-35,25.5-54.7l0,0c8.1-34.2,4.8-65.9-4.3-93.9c5.9,23.6,6.4,47.2,1.4,69.4c-6.5,29-22.2,54.8-45.2,74.6
							c-24.6,21.1-56.7,34.5-92.8,38.6c-19.2,2.2-39.5,1.8-60.4-1.3c-14.6-2.1-29.6-5.6-44.7-10.2c-0.3,8.8-13.5,14.7-30.8,8.9
							c-36.7-12-52.4,9.2-20.2,25.6c1.8,0.7,3.6,1.4,5.3,2.1l0,0c2.7,0.7,5.8,1.8,8.2,3c0,0,0,0,0,0c0,0,0.1,0,0.1,0
							c0.8,0.3,1.6,0.5,2.4,0.8c43.6,14,83.9,17.8,119.8,13.6c1.3-0.2,2.6-0.3,3.9-0.5c0.7-0.1,1.4-0.2,2-0.3
							C420.7,563.7,464.2,537.6,492.1,501.3"/>
						<path id="path674" class="st0" d="M104.7,445.3c0,0-2.5,0.5-3.2-0.9l-1.6-1.1l1.6,0.4c0,0,1.4-2,4-2.9c4-1.3,8.2-0.5,11.9,1.2
							c-0.5,0-1.7-0.3-3.7,0.4c-8.2,2.8-1.9,6.4,6.3,7.2c4.8,0.5,8.9-6.3,14.5-6.1c-16.7,19.7-24.1,7-28.5,3.4
							c-1.9,10.7-15.6,9.3-20.3,5.5c3.5-1,8,0.4,11.9,0.1C102.7,452.1,104.7,449.6,104.7,445.3"/>
						<path id="path676" class="st0" d="M180.4,488.9c-1.6-0.7-5.1-1.5-5.9-2.4c-4.1,2.3-8.3,1.5-10.8,3c-1.2,0.8-1.7,1.8-3.1,2.6
							c-0.9,0.5-1.6,1-2.4,1.6c-0.5,0.2-1,0.2-1.4,0.3c0.3,0.2,0.8,0.2,1.2,0.3c0.4,1.1,2.1,1.5,2.4,1.4
							c-4.9,7.6-10.9,12.8-24.3,7.1c24.5,15.5,23.9,0.7,28.1-4c3.8,9.4,3.2,27.3,46.5,10.1c-14.4-8.5-36.7,8.2-40.3-14.3
							c-0.3-2.1-0.8-3.9,1.9-4.4c1.1-0.2,2.5-0.3,4-0.5C177.9,489.3,179.2,489.3,180.4,488.9"/>
						<path id="path678" class="st0" d="M98.3,527.3c-1.6,2-4,7.1-7.1,6.9c-0.7,0-1.6-0.3-2.6-0.8c0,0-4.4-2.6-7.7-3.9
							c-2-0.8-2.9-1,0.1-0.9c3.4,0.2,6.4,2.5,10,1.9c2-0.4,4.5-1.5,5.6-4.6c0,0-1.7-2.7-3.5-1.3c0.4-0.6,0.6-1,2.2-1.2
							c-0.3-0.3-1.6,0.1-1.4,0c0,0,0.8-0.6,1.8-0.4c1.1-0.7,2.8,0,3.4,1.1c0,0,2.5-0.4,5.3-0.2c3.4,0.1,2.5,0.7,4.5-2.3
							c0.8-1.2,1.1-1.9,1.6-2.7c5-7.3,4-3.6,1.7,1.6c-0.3,0.6-0.6,1.3-0.9,2.3c-2.4,6.3-2.8,4.7-8.5,3.3c-1-0.3-2-0.4-2.7-0.1
							c0.6,0.5,0.7,0.9,1.1,1.4c0.2,0.3,0.5,0.6,1,0.9c0,0.1-0.8-0.3-1.1-0.2c-0.5,0.5-0.9,0.3-1.3,0.1
							C99.2,528,98.8,527.5,98.3,527.3"/>
					</g>
				</g>
			</g>
		</g>
	</g>
</g>
</svg>
